<?xml version="1.0" encoding="UTF-8"?>
<svg width="129px" height="70px" viewBox="0 0 129 70" version="1.1" xmlns="http://www.w3.org/2000/svg" xmlns:xlink="http://www.w3.org/1999/xlink">
    <!-- Generator: Sketch 62 (91390) - https://sketch.com -->
    <title>Atomes/logo</title>
    <desc>Created with Sketch.</desc>
    <defs>
        <polygon id="path-1" points="0.139852941 0.14704 2.95526471 0.14704 2.95526471 8 0.139852941 8"></polygon>
        <polygon id="path-3" points="0 70 129 70 129 0 0 0"></polygon>
    </defs>
    <g id="Atomes/logo" stroke="none" stroke-width="1" fill="none" fill-rule="evenodd">
        <g id="Group-64">
            <path d="M28.7877147,13.016878 C26.1406202,0.4142776 29.450541,-5.31280022 49.7992905,6.30550009 C68.497769,17.4353422 99.272396,35.6020117 99.272396,35.6020117 C109.530031,41.1664594 113.83199,46.7295819 94.6387365,50.4950646 L62.3740422,57.0407832 C47.6494593,59.331993 39.707793,58.6793901 35.4048767,41.8198196 L28.7877147,13.016878 Z" id="Fill-1" fill="#CCE0FF"></path>
            <polygon id="Fill-3" fill="#2F72E8" points="1.71569797 68 1.2040225 68 0 60 0.511845918 60 1.46480314 66.8216159 2.49838077 60 3 60"></polygon>
            <path d="M7.45113489,63.5117873 C7.45113489,63.1693028 7.41275119,62.8502926 7.08095995,62.6378198 C6.9788203,62.5667949 6.81292468,62.4959706 6.54467255,62.4959706 C6.44274975,62.4959706 6.16191991,62.4959706 5.93205147,62.6612941 C5.54908197,62.9213175 5.54908197,63.2872764 5.54908197,63.6652734 L5.54908197,66.535362 C5.54908197,66.5943488 5.54908197,66.7715098 5.58724881,66.9251965 C5.70239988,67.3268684 6.04676883,67.5156663 6.48091658,67.5156663 C7.05558768,67.5156663 7.2724447,67.2086942 7.36178979,67.0078582 C7.41275119,66.889684 7.45113489,66.7596723 7.45113489,66.4882127 L7.45113489,63.5117873 Z M7.91065491,67.066845 C7.64261963,67.9291757 6.76174642,68 6.48091658,68 C5.93205147,68 5.33222495,67.775489 5.11515108,67.267681 C5.01301142,67.0433707 5,66.7835479 5,66.5471995 L5,63.4291256 C5,63.0746029 5.02558913,62.8266176 5.26825213,62.5312824 C5.44694232,62.2953352 5.82991181,62 6.54467255,62 C6.94065346,62 7.3234061,62.0826618 7.61724736,62.3424845 C7.74475929,62.4606588 7.84689894,62.6259823 7.91065491,62.7794683 C8,63.0156161 8,63.2282896 8,63.464638 L8,66.2992142 C8,66.5708744 7.98742229,66.8306972 7.91065491,67.066845 L7.91065491,67.066845 Z" id="Fill-5" fill="#2F72E8"></path>
            <g id="Group-9" transform="translate(9.000000, 62.000000)">
                <mask id="mask-2" fill="white">
                    <use xlink:href="#path-1"></use>
                </mask>
                <g id="Clip-8"></g>
                <path d="M1.61497059,6.74024 C1.54226471,7.08164 1.46955882,7.36424 1.25126471,7.62324 C0.929382353,8.00004 0.493147059,8.00004 0.139852941,8.00004 L0.150264706,7.50544 C0.3165,7.52904 0.867088235,7.61144 1.11644118,7.03464 C1.16832353,6.91684 1.18914706,6.82264 1.20979412,6.70484 L1.34497059,6.02204 L0.202147059,0.14704 L0.648794118,0.14704 L1.56308824,5.06844 L2.48761765,0.14704 L2.95526471,0.14704 L1.61497059,6.74024 Z" id="Fill-7" fill="#2F72E8" mask="url(#mask-2)"></path>
            </g>
            <path d="M15.1827344,64.6917194 C15.0707359,64.7865927 14.9477087,64.8695818 14.8244913,64.940485 C14.634151,65.0591271 14.4438106,65.1542019 14.2648793,65.2607581 C13.7499525,65.5929156 13.4812702,65.9605248 13.4812702,66.6125525 C13.4812702,66.8025007 13.5149268,67.5256332 14.220194,67.5256332 C14.6565887,67.5256332 14.9140521,67.2766661 15.1827344,66.9684787 L15.1827344,64.6917194 Z M15.3394181,67.834022 C15.2610763,67.7627159 15.2274197,67.7153799 15.1827344,67.5375175 C15.0260506,67.6678425 14.6678076,68 14.0969766,68 C13.3133676,68 13,67.3358864 13,66.6008696 C13,66.1383871 13.1118083,65.8418827 13.2013691,65.6640203 C13.5259555,65.0355598 14.1416619,64.7982757 14.6790264,64.4780025 C14.9028332,64.3476775 14.9811751,64.3003416 15.1715155,64.1341621 L15.1715155,63.4583656 C15.1715155,63.1501782 15.1827344,62.7944535 14.9028332,62.5928224 C14.7685872,62.4860647 14.6231223,62.4860647 14.4552196,62.4860647 C14.0408823,62.4860647 13.8954174,62.6758114 13.8170755,62.8655581 C13.6940483,63.1501782 13.705077,63.5651233 13.7162959,63.8735121 L13.2350257,63.8735121 C13.2350257,63.2212829 13.2350257,62.9602301 13.3692717,62.6520427 C13.6491728,61.9879291 14.3432211,62 14.5221525,62 C14.7573683,62 14.9701464,62.0473509 15.1827344,62.1659929 C15.6193193,62.4268443 15.6640046,62.8417894 15.6640046,63.3161563 L15.6640046,67.3240021 C15.6864423,67.5375175 15.8433162,67.5256332 16,67.5256332 L16,68 C15.641757,68 15.4736642,67.964347 15.3394181,67.834022 L15.3394181,67.834022 Z" id="Fill-10" fill="#2F72E8"></path>
            <path d="M19.4617194,64.1457175 C19.3726633,63.7463143 19.0025712,63.3994032 18.4669343,63.4099373 C18.4030132,63.4099373 18.1735474,63.4204714 17.9947851,63.5150997 C17.5993413,63.7357802 17.5993413,64.1141152 17.5993413,64.4504923 L17.5993413,66.8888691 C17.5993413,67.2043565 17.5993413,67.5616232 17.9312974,67.7719482 C18.1481957,67.8980003 18.3520931,67.8980003 18.4541501,67.8980003 C18.6326957,67.8980003 19.0409238,67.8349742 19.295958,67.4775289 C19.3596624,67.3829006 19.3980151,67.3093404 19.4617194,67.1097281 L19.4617194,64.1457175 Z M19.9083002,69.2117278 C19.6786177,69.7584298 19.0790598,70 18.4157975,70 C17.943865,70 17.3570912,69.8530582 17.140193,69.4640106 C17.0509202,69.3168903 17.0255684,69.180304 17,68.8753507 L17.5484211,68.8753507 C17.5612053,68.9174871 17.5484211,69.1067439 17.6376939,69.2643983 C17.8290237,69.5691731 18.3520931,69.5691731 18.4285817,69.5691731 C18.5562071,69.5691731 19.1557651,69.5375708 19.3726633,69.1276335 C19.4235835,69.0331837 19.4489352,68.9385553 19.4489352,68.738943 L19.4489352,67.866398 C19.295958,67.9926287 18.9644352,68.3290058 18.3265246,68.3290058 C18.2116834,68.3290058 17.9055123,68.3079376 17.6376939,68.1711728 C17.0639211,67.8769321 17.0639211,67.3514768 17.0639211,66.8679794 L17.0639211,64.1982095 C17.0639211,63.9985972 17.0764886,63.8514768 17.1531939,63.651686 C17.4080114,63.0316023 18.1607632,63 18.3776615,63 C19.0153554,63 19.3215265,63.3363771 19.4489352,63.4834974 L19.4489352,63.0526705 L19.997573,63.0526705 L19.997573,68.5916441 C19.997573,68.6862725 20.0231414,68.9385553 19.9083002,69.2117278 L19.9083002,69.2117278 Z" id="Fill-12" fill="#2F72E8"></path>
            <path d="M24.4391364,63.5503585 C24.4391364,63.0294847 24.2957881,62.7691483 24.0740082,62.6153588 C23.9825046,62.5562554 23.78709,62.4495075 23.5001719,62.4495075 C23.4088899,62.4495075 23.1478941,62.4615694 22.9261141,62.6153588 C22.5740578,62.8638343 22.5479139,63.2307177 22.5479139,63.597601 L22.5479139,64.6389466 L24.4391364,64.6389466 L24.4391364,63.5503585 Z M24.7129826,67.5149099 C24.3086385,68 23.695808,68 23.4868784,68 C23.3043143,68 23.0958278,67.9764793 22.9261141,67.9290357 C22.7566219,67.8815922 22.2871397,67.6805602 22.1045756,67.2069289 C22.0261439,67.0296187 22,66.8876901 22,66.5445286 L22,63.4200898 C22,63.3254037 22,63.1123099 22.0784317,62.8638343 C22.1958576,62.5206728 22.5219916,62 23.4868784,62 C24.1914341,62 24.5563408,62.2838571 24.7391265,62.5206728 C25.0129727,62.899417 24.9999007,63.4319507 24.9999007,63.8697983 L24.9999007,65.0651344 L22.5479139,65.0651344 L22.5479139,66.5324667 C22.5479139,66.5799102 22.5479139,66.7809422 22.5999801,66.9586544 C22.6784118,67.195269 22.8740479,67.5384306 23.5260943,67.5384306 C23.6043044,67.5384306 23.9435103,67.5265697 24.1781406,67.3253367 C24.2173565,67.2899551 24.3086385,67.2069289 24.3607047,67.0650003 C24.4652803,66.8046639 24.4522084,66.497085 24.4522084,65.9171078 L24.9999007,65.9171078 L24.9999007,66.5917711 C24.9999007,66.9467935 24.9606849,67.2189908 24.7129826,67.5149099 L24.7129826,67.5149099 Z" id="Fill-14" fill="#2F72E8"></path>
            <path d="M27.4657359,62.8371082 C26.904014,63.1162102 26.6301338,63.7555965 26.5752182,63.8719384 L26.5752182,68 L26,68 L26,62.1511061 L26.5614892,62.1511061 L26.5614892,63.1742823 C26.7122746,62.8835265 26.8218732,62.7790361 26.9726585,62.6277324 C27.2190809,62.4069002 27.4517743,62.2324862 28,62 L28,62.6626942 C27.8217568,62.70931 27.6162885,62.7557282 27.4657359,62.8371082" id="Fill-16" fill="#2F72E8"></path>
            <path d="M34.4391364,63.5503585 C34.4391364,63.0294847 34.2957881,62.7691483 34.0740082,62.6153588 C33.9825046,62.5562554 33.78709,62.4495075 33.5001719,62.4495075 C33.4088899,62.4495075 33.1478941,62.4615694 32.9261141,62.6153588 C32.5740578,62.8638343 32.5479139,63.2307177 32.5479139,63.597601 L32.5479139,64.6389466 L34.4391364,64.6389466 L34.4391364,63.5503585 Z M34.7129826,67.5149099 C34.3086385,68 33.695808,68 33.4868784,68 C33.3043143,68 33.0958278,67.9764793 32.9261141,67.9290357 C32.7566219,67.8815922 32.2871397,67.6805602 32.1045756,67.2069289 C32.0261439,67.0296187 32,66.8876901 32,66.5445286 L32,63.4200898 C32,63.3254037 32,63.1123099 32.0784317,62.8638343 C32.1958576,62.5206728 32.5219916,62 33.4868784,62 C34.1914341,62 34.5563408,62.2838571 34.7391265,62.5206728 C35.0129727,62.899417 34.9999007,63.4319507 34.9999007,63.8697983 L34.9999007,65.0651344 L32.5479139,65.0651344 L32.5479139,66.5324667 C32.5479139,66.5799102 32.5479139,66.7809422 32.5999801,66.9586544 C32.6784118,67.195269 32.8740479,67.5384306 33.5260943,67.5384306 C33.6043044,67.5384306 33.9435103,67.5265697 34.1781406,67.3253367 C34.2173565,67.2899551 34.3086385,67.2069289 34.3607047,67.0650003 C34.4652803,66.8046639 34.4522084,66.497085 34.4522084,65.9171078 L34.9999007,65.9171078 L34.9999007,66.5917711 C34.9999007,66.9467935 34.9606849,67.2189908 34.7129826,67.5149099 L34.7129826,67.5149099 Z" id="Fill-18" fill="#2F72E8"></path>
            <path d="M38.4522491,68 L38.4522491,63.2494994 C38.4389541,63.2024429 38.4389541,63.0374449 38.3868823,62.8840609 C38.3217372,62.7308771 38.1260802,62.4243092 37.6434744,62.4361233 C37.2652338,62.4361233 36.9259916,62.6129355 36.7172612,62.8840609 C36.6521161,62.9665599 36.6259694,63.0138166 36.5477509,63.1788146 L36.5477509,68 L36,68 L36,62.0708851 L36.5477509,62.0708851 L36.5477509,62.6365639 C36.6521161,62.4831798 36.7303346,62.4126952 36.7954797,62.3536243 C37.1475737,62.0354425 37.5783293,62 37.7609129,62 C38.2955905,62.0118142 38.7784179,62.247497 38.9348549,62.7545054 C38.9869267,62.9195034 39,63.0726872 39,63.2376852 L39,68 L38.4522491,68 Z" id="Fill-20" fill="#2F72E8"></path>
            <path d="M43.755876,67.8005248 C43.6278886,67.6572909 43.6162354,67.5249165 43.6162354,67.3487293 L43.6162354,62.8738375 L43,62.8738375 L43,62.4329015 L43.6162354,62.4329015 L43.6162354,61 L44.1161367,61 L44.1161367,62.4329015 L45,62.4329015 L45,62.8738375 L44.1161367,62.8738375 L44.1161367,67.2384485 C44.1161367,67.5580569 44.4532886,67.5580569 44.5581671,67.5580569 C44.7092633,67.5580569 44.8487063,67.5470101 45,67.5361505 L45,67.9768992 C44.3604582,68.0210865 43.9766937,68.0210865 43.755876,67.8005248" id="Fill-22" fill="#2F72E8"></path>
            <path d="M48.4511349,63.5117873 C48.4511349,63.1693028 48.4127512,62.8502926 48.08096,62.6378198 C47.9786034,62.5667949 47.8129247,62.4959706 47.5446725,62.4959706 C47.4427497,62.4959706 47.1617031,62.4959706 46.9318346,62.6612941 C46.549082,62.9213175 46.549082,63.2872764 46.549082,63.6652734 L46.549082,66.535362 C46.549082,66.5943488 46.549082,66.7715098 46.5872488,66.9251965 C46.702183,67.3268684 47.0467688,67.5156663 47.4806997,67.5156663 C48.0553708,67.5156663 48.2724447,67.2086942 48.3617898,67.0078582 C48.4127512,66.889684 48.4511349,66.7596723 48.4511349,66.4882127 L48.4511349,63.5117873 Z M48.9106549,67.066845 C48.6426196,67.9291757 47.7617464,68 47.4806997,68 C46.9318346,68 46.3320081,67.775489 46.1149342,67.267681 C46.0127946,67.0433707 46,66.7835479 46,66.5471995 L46,63.4291256 C46,63.0746029 46.0253723,62.8266176 46.2682521,62.5312824 C46.4469423,62.2953352 46.829695,62 47.5446725,62 C47.9404366,62 48.3234061,62.0826618 48.6170305,62.3424845 C48.7447593,62.4606588 48.8466821,62.6259823 48.9106549,62.7794683 C49,63.0156161 49,63.2282896 49,63.464638 L49,66.2992142 C49,66.5708744 48.9874223,66.8306972 48.9106549,67.066845 L48.9106549,67.066845 Z" id="Fill-24" fill="#2F72E8"></path>
            <path d="M52.4367629,67.9643469 L52.4367629,67.4069896 C52.384467,67.4662101 52.3450783,67.525632 52.2271345,67.63239 C51.9652103,67.8575889 51.611379,68 51.2446406,68 C50.8647726,68 50.4849047,67.8457045 50.2621467,67.5610837 C50.0262592,67.2766643 50,66.932823 50,66.6006647 L50,62 L50.5501076,62 L50.5501076,66.4109175 C50.5501076,66.7785275 50.5894963,67.2885487 51.0481418,67.4901803 C51.1135672,67.525632 51.231511,67.5610837 51.4148802,67.5610837 C51.5719902,67.5610837 51.9652103,67.5137476 52.2140049,67.1936751 C52.3056895,67.0750327 52.384467,66.9207372 52.4367629,66.7904119 L52.4367629,62 L53,62 L53,67.9643469 L52.4367629,67.9643469 Z" id="Fill-26" fill="#2F72E8"></path>
            <path d="M54.7557531,67.8005248 C54.6279506,67.6572909 54.6162963,67.5249165 54.6162963,67.3487293 L54.6162963,62.8738375 L54,62.8738375 L54,62.4329015 L54.6162963,62.4329015 L54.6162963,61 L55.1162469,61 L55.1162469,62.4329015 L56,62.4329015 L56,62.8738375 L55.1162469,62.8738375 L55.1162469,67.2384485 C55.1162469,67.5580569 55.4534321,67.5580569 55.5581235,67.5580569 C55.7092346,67.5580569 55.8488889,67.5470101 56,67.5361505 L56,67.9768992 C55.3605926,68.0210865 54.9765926,68.0210865 54.7557531,67.8005248" id="Fill-28" fill="#2F72E8"></path>
            <path d="M59.4391364,63.5503585 C59.4391364,63.0294847 59.2957881,62.7691483 59.0740082,62.6153588 C58.9825046,62.5562554 58.78709,62.4495075 58.5001719,62.4495075 C58.4088899,62.4495075 58.1478941,62.4615694 57.9261141,62.6153588 C57.5740578,62.8638343 57.5479139,63.2307177 57.5479139,63.597601 L57.5479139,64.6389466 L59.4391364,64.6389466 L59.4391364,63.5503585 Z M59.7129826,67.5149099 C59.3086385,68 58.695808,68 58.4868784,68 C58.3043143,68 58.0958278,67.9764793 57.9261141,67.9290357 C57.7566219,67.8815922 57.2871397,67.6805602 57.1045756,67.2069289 C57.0261439,67.0296187 57,66.8876901 57,66.5445286 L57,63.4200898 C57,63.3254037 57,63.1123099 57.0784317,62.8638343 C57.1958576,62.5206728 57.5219916,62 58.4868784,62 C59.1914341,62 59.5563408,62.2838571 59.7391265,62.5206728 C60.0129727,62.899417 59.9999007,63.4319507 59.9999007,63.8697983 L59.9999007,65.0651344 L57.5479139,65.0651344 L57.5479139,66.5324667 C57.5479139,66.5799102 57.5479139,66.7809422 57.5999801,66.9586544 C57.6784118,67.195269 57.8740479,67.5384306 58.5260943,67.5384306 C58.6043044,67.5384306 58.9435103,67.5265697 59.1781406,67.3253367 C59.2173565,67.2899551 59.3086385,67.2069289 59.3607047,67.0650003 C59.4652803,66.8046639 59.4522084,66.497085 59.4522084,65.9171078 L59.9999007,65.9171078 L59.9999007,66.5917711 C59.9999007,66.9467935 59.9606849,67.2189908 59.7129826,67.5149099 L59.7129826,67.5149099 Z" id="Fill-30" fill="#2F72E8"></path>
            <mask id="mask-4" fill="white">
                <use xlink:href="#path-3"></use>
            </mask>
            <g id="Clip-33"></g>
            <polygon id="Fill-32" fill="#2F72E8" mask="url(#mask-4)" points="64.7640407 68 65.2359593 68 65.2359593 60 64.7640407 60"></polygon>
            <path d="M67,68 L67.9770842,68 L67.9770842,62.4984738 L67,62.4984738 L67,68 Z M67,61.8531918 L68,61.8531918 L68,61 L67,61 L67,61.8531918 Z" id="Fill-34" fill="#2F72E8" mask="url(#mask-4)"></path>
            <path d="M71.4568019,63.6896833 C71.4568019,63.5882888 71.4827207,62.6742058 70.5904964,62.6742058 C70.1250549,62.6742058 69.7628496,62.9111122 69.6207351,63.2948392 C69.5818568,63.4190426 69.5561576,63.4753941 69.5561576,63.7011836 L69.5561576,66.4428578 C69.5561576,66.8152762 69.6723532,67.0071398 69.7760287,67.1537687 C70.0343388,67.5033782 70.4092839,67.5712301 70.5904964,67.5712301 C70.7326109,67.5712301 71.0429785,67.5261872 71.2501098,67.2553548 C71.4311027,67.0297571 71.4568019,66.7589247 71.4568019,66.4880924 L71.4568019,63.6896833 Z M71.75421,67.4583353 C71.6250549,67.6388902 71.2885488,68 70.6291551,68 C70.4870406,68 70.2414702,68 69.9568019,67.8420624 C69.9051838,67.8081365 69.8144677,67.7517849 69.7112315,67.6615075 C69.6593938,67.605156 69.6207351,67.5488044 69.5818568,67.4922612 L69.5818568,67.9662658 L69,67.9662658 L69,60 L69.5429785,60 L69.5429785,62.7757918 C69.5688973,62.7531746 69.6723532,62.6402798 69.7628496,62.561311 C70.1120955,62.2454358 70.577537,62.2230102 70.74579,62.2230102 C70.8490262,62.2230102 71.0818568,62.2230102 71.353346,62.3470219 C71.9481622,62.6065456 72,63.2271791 72,63.7236092 L72,66.657147 C72,66.9507883 71.9481622,67.1990033 71.75421,67.4583353 L71.75421,67.4583353 Z" id="Fill-35" fill="#2F72E8" mask="url(#mask-4)"></path>
            <path d="M75.4391364,63.5503585 C75.4391364,63.0294847 75.2957881,62.7691483 75.0740082,62.6153588 C74.9825046,62.5562554 74.78709,62.4495075 74.4999504,62.4495075 C74.4086683,62.4495075 74.1478941,62.4615694 73.9261141,62.6153588 C73.5738363,62.8638343 73.5479139,63.2307177 73.5479139,63.597601 L73.5479139,64.6389466 L75.4391364,64.6389466 L75.4391364,63.5503585 Z M75.7129826,67.5149099 C75.3086385,68 74.695808,68 74.4868784,68 C74.3043143,68 74.0958278,67.9764793 73.9261141,67.9290357 C73.7564004,67.8815922 73.2869181,67.6805602 73.104354,67.2069289 C73.0261439,67.0296187 73,66.8876901 73,66.5445286 L73,63.4200898 C73,63.3254037 73,63.1123099 73.0784317,62.8638343 C73.1956361,62.5206728 73.52177,62 74.4868784,62 C75.1912126,62 75.5563408,62.2838571 75.7391265,62.5206728 C76.0129727,62.899417 75.9999007,63.4319507 75.9999007,63.8697983 L75.9999007,65.0651344 L73.5479139,65.0651344 L73.5479139,66.5324667 C73.5479139,66.5799102 73.5479139,66.7809422 73.5999801,66.9586544 C73.6784118,67.195269 73.8740479,67.5384306 74.5260943,67.5384306 C74.6043044,67.5384306 74.9435103,67.5265697 75.1781406,67.3253367 C75.2173565,67.2899551 75.3086385,67.2069289 75.3607047,67.0650003 C75.4650587,66.8046639 75.4522084,66.497085 75.4522084,65.9171078 L75.9999007,65.9171078 L75.9999007,66.5917711 C75.9999007,66.9467935 75.9606849,67.2189908 75.7129826,67.5149099 L75.7129826,67.5149099 Z" id="Fill-36" fill="#2F72E8" mask="url(#mask-4)"></path>
            <path d="M78.4657359,62.8371082 C77.904014,63.1162102 77.6301338,63.7555965 77.5754508,63.8719384 L77.5754508,68 L77,68 L77,62.1511061 L77.5614892,62.1511061 L77.5614892,63.1742823 C77.7125073,62.8835265 77.8218732,62.7790361 77.9726585,62.6277324 C78.2190809,62.4069002 78.452007,62.2324862 79,62 L79,62.6626942 C78.8217568,62.70931 78.6162885,62.7557282 78.4657359,62.8371082" id="Fill-37" fill="#2F72E8" mask="url(#mask-4)"></path>
            <path d="M80.7557531,67.8005248 C80.6279506,67.6572909 80.6160988,67.5249165 80.6160988,67.3487293 L80.6160988,62.8738375 L80,62.8738375 L80,62.4329015 L80.6160988,62.4329015 L80.6160988,61 L81.1162469,61 L81.1162469,62.4329015 L82,62.4329015 L82,62.8738375 L81.1162469,62.8738375 L81.1162469,67.2384485 C81.1162469,67.5580569 81.4534321,67.5580569 81.5581235,67.5580569 C81.7092346,67.5580569 81.8486914,67.5470101 82,67.5361505 L82,67.9768992 C81.3603951,68.0210865 80.9765926,68.0210865 80.7557531,67.8005248" id="Fill-38" fill="#2F72E8" mask="url(#mask-4)"></path>
            <path d="M84.1348222,61.2881016 L83.6651183,61.2881016 L84.7607247,60 L85.9999009,60 L84.1348222,61.2881016 Z M85.4391365,63.556983 C85.4391365,63.0368846 85.2955667,62.7769358 85.0737867,62.6231746 C84.9825046,62.5641592 84.7868686,62.4577709 84.4997289,62.4577709 C84.4084468,62.4577709 84.1478941,62.4698148 83.9261142,62.6231746 C83.5738363,62.8714809 83.5479139,63.237818 83.5479139,63.6041552 L83.5479139,64.6439504 L85.4391365,64.6439504 L85.4391365,63.556983 Z M85.7129827,67.5154313 C85.3086386,68 84.6955865,68 84.4868785,68 C84.3043144,68 84.0956063,67.9763135 83.9261142,67.9291414 C83.7564004,67.8817685 83.2869181,67.6810358 83.104354,67.2081096 C83.0261439,67.0308626 83,66.8891454 83,66.5464947 L83,63.4267075 C83,63.3323631 83,63.1195865 83.0782101,62.8714809 C83.1956361,62.5288302 83.5215485,62.0089326 84.4868785,62.0089326 C85.1912127,62.0089326 85.5563409,62.2923671 85.7389051,62.5288302 C86.0129728,62.9068099 85.9999009,63.4387514 85.9999009,63.8759472 L85.9999009,65.0695037 L83.5479139,65.0695037 L83.5479139,66.5346515 C83.5479139,66.5820244 83.5479139,66.7827571 83.5999802,66.9602047 C83.6781903,67.1964671 83.8738264,67.5391178 84.5260943,67.5391178 C84.6043044,67.5391178 84.9432888,67.5272746 85.1781407,67.3263411 C85.2173566,67.2908115 85.3086386,67.2081096 85.3607049,67.0663923 C85.4650589,66.8064435 85.4519869,66.4993225 85.4519869,65.9202088 L85.9999009,65.9202088 L85.9999009,66.5938676 C85.9999009,66.9481608 85.960685,67.2201536 85.7129827,67.5154313 L85.7129827,67.5154313 Z" id="Fill-39" fill="#2F72E8" mask="url(#mask-4)"></path>
            <path d="M83.2086222,49.9782831 C83.2086222,48.8498259 82.665659,48.6394182 81.5797325,48.6394182 L80.5121414,48.6394182 C79.4447475,48.6394182 78.7913778,48.8305675 78.7913778,49.9973366 L78.7913778,50.9248105 C78.7913778,51.8143823 79.1687313,52.3306699 80.3465317,52.3306699 L81.6349358,52.3306699 C82.9233398,52.3306699 83.2086222,51.8811719 83.2086222,50.9344397 L83.2086222,49.9782831 Z M78,46 L78.7913778,46 L78.7913778,48.6967834 L78.8097131,48.6967834 C78.9753228,48.1899201 79.4078796,47.9698832 80.309861,47.9698832 L81.515263,47.9698832 C83.4201689,47.9698832 84,48.5244827 84,50.0833846 L84,50.9440688 C84,52.6271256 82.9968784,53 81.5613972,53 L80.4569382,53 C79.6288897,53 78.9845891,52.7418562 78.7545099,52.1489449 L78.7359774,52.1489449 L78.7359774,52.9235812 L78,52.9235812 L78,46 Z" id="Fill-40" fill="#44D774" mask="url(#mask-4)"></path>
            <path d="M84.9560129,53.4000551 C86.1578075,53.4000551 86.4127572,53.3227435 86.8223934,52.4398127 L86.6312299,52.4398127 L84,48 L84.8830586,48 L87.1319614,51.8657607 L89.1534185,48 L90,48 L87.3779382,52.9113947 C86.8953477,53.8114039 86.5676387,53.9829217 84.9560129,54 L84.9560129,53.4000551 Z" id="Fill-41" fill="#44D774" mask="url(#mask-4)"></path>
            <path d="M95,48.5634916 C95,46.8323393 95.5683575,46 97.364328,46 L100.80078,46 C102.431839,46 102.881028,46.7851187 102.881028,47.7025767 L102.881028,48.2890851 L102.092788,48.2890851 L102.092788,47.9767805 C102.092788,46.8132889 101.396427,46.7565431 100.57167,46.7565431 L97.4560112,46.7565431 C96.5945422,46.7565431 95.8979852,47.0216271 95.8979852,48.2132889 L95.8979852,50.7865084 C95.8979852,51.9783729 96.5945422,52.2432542 97.4560112,52.2432542 L100.599156,52.2432542 C101.808707,52.2432542 102.156985,51.9783729 102.156985,51.051187 L102.156985,50.6255935 L103,50.6255935 L103,51.0890851 C103,52.3283729 102.615205,53 100.754841,53 L97.364328,53 C95.5683575,53 95,52.167458 95,50.4363057 L95,48.5634916 Z" id="Fill-42" fill="#44D774" mask="url(#mask-4)"></path>
            <path d="M109.248948,50.0153144 C109.248948,48.884042 108.637478,48.6655262 107.764057,48.6655262 L106.235756,48.6655262 C105.362522,48.6655262 104.75124,48.884042 104.75124,50.0153144 L104.75124,50.9848892 C104.75124,52.115958 105.362522,52.3348811 106.235756,52.3348811 L107.764057,52.3348811 C108.637478,52.3348811 109.248948,52.115958 109.248948,50.9848892 L109.248948,50.0153144 Z M104,49.9678641 C104,48.3708456 105.039386,48 106.462906,48 L107.537281,48 C108.960801,48 110,48.3708456 110,49.9678641 L110,51.0323395 C110,52.6293581 108.960801,53 107.537281,53 L106.462906,53 C105.039386,53 104,52.6293581 104,51.0323395 L104,49.9678641 Z" id="Fill-43" fill="#44D774" mask="url(#mask-4)"></path>
            <polygon id="Fill-44" fill="#44D774" mask="url(#mask-4)" points="111 52 112 52 112 46 111 46"></polygon>
            <path d="M114,52 L115,52 L115,47.7735101 L114,47.7735101 L114,52 Z M114,46.7790732 L115,46.7790732 L115,46 L114,46 L114,46.7790732 Z" id="Fill-45" fill="#44D774" mask="url(#mask-4)"></path>
            <path d="M116.010867,48.7934017 L115,48.7934017 L115,48.1361899 L116.010867,48.1361899 L116.010867,47 L116.787192,47 L116.787192,48.1361899 L119.864651,48.1361899 L119.864651,48.7934017 L116.787192,48.7934017 L116.787192,51.1784349 C116.787192,52.0704084 117.084961,52.3429893 117.933215,52.3429893 L118.176844,52.3429893 C119.205692,52.3429893 119.368305,52.1172802 119.368305,51.1126534 L119.368305,50.7559847 L120,50.7559847 L120,51.2818346 C120,52.2395896 119.909703,53 118.230983,53 L117.806953,53 C116.353687,53 116.010867,52.267753 116.010867,51.4882317 L116.010867,48.7934017 Z" id="Fill-46" fill="#44D774" mask="url(#mask-4)"></path>
            <path d="M126.209672,49.6540404 C126.209672,49.1595797 125.851416,48.6655262 124.565041,48.6655262 L123.407401,48.6655262 C122.157836,48.6655262 121.863751,48.8746742 121.790328,49.977232 L126.209672,49.977232 L126.209672,49.6540404 Z M121,49.958089 C121,48.1995764 122.176143,48 123.296972,48 L124.565041,48 C125.979955,48 127,48.3706419 127,50.1006435 L127,50.6425546 L121.790328,50.6425546 L121.790328,50.9468068 C121.790328,52.0495683 122.304682,52.3346774 123.682983,52.3346774 L124.767199,52.3346774 C125.75949,52.3346774 126.163807,52.2014907 126.209672,51.4600033 L127,51.4600033 L127,51.5551075 C127,52.6672369 126.108494,53 124.63866,53 L123.205046,53 C122.176143,53 121,52.8004236 121,51.0134001 L121,49.958089 Z" id="Fill-47" fill="#44D774" mask="url(#mask-4)"></path>
            <polygon id="Fill-48" fill="#44D774" mask="url(#mask-4)" points="128 52 129 52 129 46 128 46"></polygon>
            <polygon id="Fill-49" fill="#2F72E8" mask="url(#mask-4)" points="2.80284754 28 0 28 0 14 11 14 11 16.4368336 2.80284754 16.4368336 2.80284754 19.42789 10.5914574 19.42789 10.5914574 21.8647236 2.80284754 21.8647236"></polygon>
            <polygon id="Fill-50" fill="#2F72E8" mask="url(#mask-4)" points="12 28 14 28 14 14 12 14"></polygon>
            <path d="M17.0042344,31 L17.0042344,28.8290613 L17.5168566,28.8290613 C19.3523193,28.8290613 19.9056532,28.7516074 20.439109,27.813802 L15,18 L17.8337573,18 L21.7445563,25.2245749 L25.2585606,18 L28,18 L22.6931559,28.5944706 C21.6294935,30.6426347 20.5801661,30.9608087 17.5223995,30.994242 L17.0042344,31 Z" id="Fill-51" fill="#2F72E8" mask="url(#mask-4)"></path>
            <path d="M29,16.6806528 L31,16.6806528 L31,14 L29,14 L29,16.6806528 Z M29,28 L31,28 L31,17.7345498 L29,17.7345498 L29,28 Z" id="Fill-52" fill="#2F72E8" mask="url(#mask-4)"></path>
            <path d="M44,28 L41.6002,28 L41.6002,21.7534983 C41.6002,20.9064517 41.6002,20.1745214 38.9936344,20.1745214 L38.6305116,20.1745214 C35.3998,20.1745214 35.3998,20.7596179 35.3998,22.3240419 L35.3998,28 L33,28 L33,18.1337736 L35.3009998,18.1337736 L35.3009998,18.6839807 C36.1172471,18.0695921 37.2144976,18 38.2375104,18 L40.0149975,18 C43.6115814,18 44,20.378447 44,21.4010597 L44,28 Z" id="Fill-53" fill="#2F72E8" mask="url(#mask-4)"></path>
            <path d="M49.5160847,20.2890413 C47.7191046,20.2890413 47.4641886,20.9554835 47.4557476,21.6751547 L47.4557476,23.3584466 C47.4488073,24.2507681 47.5799231,24.8066277 47.8693532,25.1120558 C48.1419014,25.4000028 48.6331635,25.5343519 49.4149811,25.5343519 L52.2143683,25.5343519 C54.148279,25.5343519 54.5444399,24.777558 54.5444399,23.6410904 L54.5444399,22.5171935 C54.5605715,21.6904752 54.4168881,21.131473 54.1036359,20.797368 C53.7838184,20.45521 53.2484759,20.2890413 52.4670335,20.2890413 L49.5160847,20.2890413 Z M52.4165755,32 L49.1448714,32 C46.2877106,32 45.269547,30.341653 45.269547,28.789371 L45.269547,28.1863715 L47.6245662,28.1863715 L47.6245662,28.7131613 C47.6245662,28.9781276 47.6245662,29.7109587 49.6175634,29.7109587 L51.0339513,29.7109587 C54.1032607,29.7109587 54.5444399,29.5907516 54.5444399,27.7654503 L54.5444399,27.3132988 C53.9833995,27.6666526 53.1929534,27.8230004 52.0956326,27.8230004 L49.1112952,27.8230004 C46.4602807,27.8230004 45,26.3569454 45,23.6949086 L45,22.163054 C45,19.401041 46.4741614,18 49.3812174,18 L52.4670335,18 C52.8778254,18 53.8519086,18 54.6459187,18.640908 L54.6459187,18.1406344 L57,18.1406344 L57,28.2073881 C57,30.6535629 55.3724013,32 52.4165755,32 L52.4165755,32 Z" id="Fill-54" fill="#2F72E8" mask="url(#mask-4)"></path>
            <polygon id="Fill-55" fill="#2F72E8" mask="url(#mask-4)" points="74 42 129 42 129 41 74 41"></polygon>
            <path d="M19.7164513,47.0661887 C19.7164513,47.8021183 19.7164513,48.332835 17.6420173,48.332835 L4.28393742,48.332835 L4.28393742,43.3350956 L17.2127101,43.3350956 C19.7164513,43.3350956 19.7164513,43.6738388 19.7164513,44.7965523 L19.7164513,47.0661887 Z M4.28393742,34.6673542 L17.441648,34.6673542 C17.5013118,34.6673542 18.9143912,34.6751088 18.9143912,35.3490016 L18.9143912,37.1875963 C18.9143912,37.6763246 18.9143912,38.2306833 17.2982217,38.2306833 L4.28393742,38.2306833 L4.28393742,34.6673542 Z M19.8470508,40.5044807 L19.8470508,40.392512 C22.3671169,40.1420955 23.1979399,38.6647513 23.1979399,37.216345 L23.1979399,35.4874495 C23.1979399,33.1743117 21.9951414,31 17.6993489,31 L0,31 L0,52 L17.9856185,52 C21.4226023,52 24,50.5226558 24,47.7079284 L24,44.4899623 C24,41.4242509 22.052473,40.6162603 19.8470508,40.5044807 L19.8470508,40.5044807 Z" id="Fill-56" fill="#44D774" mask="url(#mask-4)"></path>
            <path d="M66.4328246,52 L54.9369511,52 C49.299754,52 47,49.6427375 47,43.8661492 L47,39.1340398 C47,33.3566952 49.299754,31 54.9369511,31 L65.4654218,31 C70.9388749,31 73.7153789,33.0617302 73.7153789,37.1280883 L73.7153789,38.4350104 L69.9069786,38.4350104 L69.9069786,37.8522654 C69.9069786,34.6537852 69.349322,34.3953126 62.4490946,34.3953126 L55.221186,34.3953126 C52.2087207,34.3953126 50.9800612,35.4690989 50.9800612,38.1029857 L50.9800612,44.8966362 C50.9800612,47.530712 52.2087207,48.6054437 55.221186,48.6054437 L66.1198186,48.6054437 C68.890916,48.6054437 70.0201319,47.6925646 70.0201319,45.4542336 L70.0201319,44.0032324 L59.4636625,44.0032324 L59.4636625,40.6086761 L74,40.6086761 L74,43.9769502 C74,49.8251999 71.9483723,52 66.4328246,52" id="Fill-57" fill="#44D774" mask="url(#mask-4)"></path>
            <polygon id="Fill-58" fill="#44D774" mask="url(#mask-4)" points="38.3022723 31 34.6984915 31 29.2430781 40.0218624 34.5959519 40.0218624 34.5959519 36.9742527 40.8714913 41.2626615 34.5959519 45.5527583 34.5959519 42.3417967 27.8401757 42.3417967 22 52 25.2778308 52 27.9354592 47.5626803 45.0645408 47.5626803 47.7221692 52 51 52"></polygon>
            <path d="M121.850402,33.9715183 L121.850402,36.4121507 L121.850402,39.8668037 C121.850402,40.1252833 121.721191,40.2748898 121.494094,40.2859648 C121.285986,40.2940364 121.118599,40.1575697 121.09863,39.9570933 C121.095694,39.9171106 121.096673,39.8767525 121.096673,39.8382715 L121.096673,33.8083965 C121.096673,33.7622193 121.094519,33.716793 121.100197,33.6704281 C121.124277,33.4902245 121.28951,33.3575121 121.479802,33.3602838 C121.674989,33.364082 121.830433,33.4982961 121.845899,33.6837556 C121.854905,33.7798642 121.850402,33.8750343 121.850402,33.9715183 M119.293399,32.2528265 C118.55122,32.2486968 117.809041,32.2517002 117.065883,32.2517002 C116.332122,32.2517002 115.596404,32.2486968 114.858728,32.2547184 C114.703871,32.2556422 114.654144,32.212093 114.659626,32.062111 C114.669414,31.7405602 114.661388,31.4193849 114.662562,31.0982095 C114.666086,30.8504296 114.796863,30.7199697 115.05411,30.7199697 C116.397119,30.718468 117.73915,30.718468 119.08118,30.7199697 C119.348607,30.7199697 119.479776,30.8474262 119.481538,31.107032 C119.482712,31.4282073 119.474294,31.7493827 119.483887,32.0709335 C119.488194,32.2143455 119.438076,32.2556422 119.293399,32.2528265 M112.881215,39.8052342 C112.881215,39.8821961 112.876517,39.9647894 112.846759,40.0359323 C112.788223,40.1941736 112.613005,40.2748898 112.430348,40.2452313 C112.261591,40.2176376 112.131988,40.0802324 112.126311,39.9002165 C112.119459,39.6621976 112.123962,39.4247418 112.123962,39.1874737 L112.123962,36.3428849 C112.123962,35.1912713 112.122787,34.9031333 112.123962,33.7511443 C112.123962,33.5037398 112.249844,33.3515053 112.464021,33.3310447 C112.672325,33.3090823 112.846368,33.4399177 112.876517,33.6392679 C112.881215,33.6837556 112.881215,33.7299328 112.881215,33.7749837 C112.881411,36.0722041 112.881411,37.5076384 112.881215,39.8052342 M122.221002,32.0983394 C121.62213,32.09665 121.019929,32.0925204 120.421057,32.1002166 C120.268549,32.1035954 120.22959,32.0562919 120.23605,31.918699 C120.244469,31.647455 120.240945,31.3773374 120.23605,31.1059057 C120.22959,30.4434698 119.768346,30.0023464 119.08118,30.0014078 C117.73915,29.9995307 116.395945,29.9995307 115.053327,30.0014078 C114.966599,30.0014078 114.876739,30.0034727 114.790207,30.0211176 C114.26103,30.130366 113.913923,30.5446466 113.906679,31.0807523 C113.901981,31.4128149 113.905505,31.7435636 113.905505,32.0983394 L113.697397,32.0983394 C113.031374,32.0983394 112.366134,32.0906433 111.700698,32.0990903 C110.762354,32.1112916 110.00882,32.8336077 110.004122,33.7346256 C109.998444,35.654357 109.998444,37.5746516 110.005296,39.4925059 C110.006471,40.2782686 110.608671,40.9514041 111.412911,41.0899356 C111.561895,41.1160276 111.713424,41.122973 111.862408,41.1383654 C111.9554,41.7773373 112.126311,42.0112265 112.53587,41.9995884 C112.690727,41.9935816 112.861638,41.9368925 112.989283,41.8520467 C113.245942,41.6861092 113.245942,41.4019131 113.236741,41.1361128 L120.838643,41.1361128 C120.893655,41.7476788 121.082968,42.0082231 121.494094,41.9995884 C121.649734,41.9950833 121.81947,41.9385819 121.950247,41.8542992 C122.208277,41.6885494 122.212976,41.4088585 122.2026,41.1361128 C122.238035,41.1317954 122.259961,41.1240992 122.282867,41.122973 C123.32321,41.0614034 124,40.3775683 124,39.3840083 L124,33.8112121 C123.999021,32.817089 123.256059,32.1020937 122.221002,32.0983394" id="Fill-59" fill="#2F72E8" mask="url(#mask-4)"></path>
            <path d="M98.9064116,21.1020502 L98.6973236,21.1020502 C98.0311002,21.1020502 97.3670303,21.093965 96.7011984,21.1028023 C95.7620642,21.114836 95.0085249,21.8379887 95.005001,22.7414594 C94.9981488,24.6630975 94.9981488,36.5672882 95.0061756,38.4898665 C95.0061756,39.2763843 95.6083805,39.9506499 96.4147791,40.08979 C96.5616106,40.1159258 96.7150984,40.1225067 96.8633003,40.1375489 C96.955119,40.7774055 97.1260308,41.0128156 97.5355928,40.9994656 C97.6908426,40.9940129 97.8625376,40.9366646 97.9890085,40.8529924 C98.2460615,40.6854602 98.2460615,40.4022912 98.2376431,40.1358567 L105.838424,40.1358567 C105.89422,40.7482613 106.082752,41.0094311 106.494663,40.9994656 C106.649521,40.9962692 106.820433,40.9389209 106.950037,40.8552488 C107.208852,40.6899729 107.214333,40.4090602 107.202391,40.1358567 C107.238022,40.130968 107.259753,40.1236349 107.283834,40.1225067 C108.323205,40.061962 109,39.3756627 109,38.3808107 L109,22.8166703 C109,21.8214423 108.256641,21.1058107 107.222752,21.1020502 C106.621917,21.0997939 106.020887,21.0962214 105.420836,21.1039305 C105.269501,21.1067509 105.229759,21.0597441 105.235828,20.9217321 C105.245421,20.6504088 105.241897,20.3792736 105.235828,20.1075743 C105.229759,19.4444023 104.768121,19.0025384 104.082124,19.0014102 C102.740084,18.9995299 101.395695,18.9995299 100.053459,19.0014102 C99.9663392,19.0014102 99.8768699,19.0032905 99.7909245,19.020965 C99.2619396,19.1300208 98.9136553,19.545749 98.9064116,20.0821906 C98.9019088,20.4149988 98.9064116,20.7464907 98.9064116,21.1020502" id="Fill-60" fill="#2F72E8" mask="url(#mask-4)"></path>
            <path d="M106.998407,35.0994829 L106.998407,22.6140805 C106.998407,22.5173471 107.00437,22.4213695 106.993222,22.3244473 C106.972483,22.1383489 106.76742,22.0030734 106.509212,22 C106.256189,21.9970276 106.037387,22.1300359 106.006018,22.3121667 C105.997982,22.3580772 106.000315,22.4045546 106.000315,22.4510319 L106.000315,38.5493867 C106.000315,38.5884957 106.000315,38.6276047 106.003426,38.668603 C106.02935,38.8700049 106.251005,39.0083033 106.527619,38.9996124 C106.827306,38.9873318 106.998407,38.8386421 106.998407,38.5773487 L106.998407,35.0994829 Z" id="Fill-61" fill="#FFFFFF" mask="url(#mask-4)"></path>
            <path d="M97.0016842,35.0658209 L97.0016842,37.9291986 C97.0016842,38.1680654 96.9965263,38.4076881 97.0042632,38.6467438 C97.0127738,38.8272167 97.1824694,38.9661147 97.4060653,38.9940833 C97.6464245,39.0231858 97.8762099,38.9436265 97.9561577,38.78413 C97.992521,38.7121298 98,38.6301139 98,38.5503656 L98,22.4489684 C98,22.403614 98,22.3563698 97.992521,22.3125271 C97.9530629,22.1120226 97.7250828,21.9803058 97.4499076,22.0024161 C97.1675114,22.0226366 97.0016842,22.1762748 97.0016842,22.4253463 L97.0016842,35.0658209 Z" id="Fill-62" fill="#FFFFFF" mask="url(#mask-4)"></path>
            <path d="M102.494341,20.9960698 C103.263425,20.9960698 104.032915,20.9921588 104.802406,20.9975364 C104.95253,21.0012029 105.003654,20.9479157 104.999799,20.7606773 C104.989453,20.3419573 104.998988,19.9237261 104.99777,19.505495 C104.995336,19.1676835 104.859818,19.0014666 104.582087,19.0014666 C103.191406,18.9995111 101.800521,18.9995111 100.409434,19.0014666 C100.143064,19.0014666 100.00714,19.1713501 100.004097,19.4940065 C100.00288,19.9122376 100.011198,20.3304687 100.000446,20.7491887 C99.9945622,20.9444936 100.046092,21.0012029 100.206157,21 C100.97159,20.9921588 101.733574,20.9960698 102.494341,20.9960698" id="Fill-63" fill="#FFFFFF" mask="url(#mask-4)"></path>
        </g>
    </g>
</svg>