<?xml version="1.0" encoding="UTF-8"?>
<svg width="23px" height="21px" viewBox="0 0 23 21" version="1.1" xmlns="http://www.w3.org/2000/svg" xmlns:xlink="http://www.w3.org/1999/xlink">
    <!-- Generator: Sketch 62 (91390) - https://sketch.com -->
    <title>Atoms/icons/commande</title>
    <desc>Created with Sketch.</desc>
    <g id="Atoms/icons/commande" stroke="none" stroke-width="1" fill="none" fill-rule="evenodd">
        <g id="passage-of-time" fill="#2F72E8" fill-rule="nonzero">
            <path d="M22.9540696,8.8661941 C22.8743051,8.69848795 22.7040104,8.59119468 22.5156096,8.59119468 L21.0832741,8.59119468 C20.1725886,3.71031737 15.8330084,0 10.6316779,0 C4.76972129,0 0,4.71075464 0,10.5002417 C0,16.2897287 4.76923194,21 10.6316779,21 C14.4148641,21 17.9430974,18.9889761 19.8393394,15.752779 C20.106526,15.2960576 19.9489544,14.7127109 19.4860267,14.4483441 C19.0240777,14.1839774 18.4329395,14.3396009 18.1662423,14.7963223 C16.6140154,17.4453062 13.7268341,19.0914363 10.6316779,19.0914363 C5.83553159,19.0914363 1.93294338,15.237578 1.93294338,10.5012083 C1.93294338,5.76387195 5.83553159,1.91001358 10.6316779,1.91001358 C14.7627939,1.91001358 18.2239859,4.77165083 19.1057996,8.59167798 L17.6847192,8.59167798 C17.4963184,8.59167798 17.326513,8.69897125 17.2462591,8.86667741 C17.1664946,9.03438356 17.1924303,9.2320545 17.3128111,9.37462889 L19.729235,12.2381994 C19.8212333,12.3469425 19.956784,12.4097719 20.1006537,12.4097719 C20.2440341,12.4097719 20.3800741,12.3464592 20.4715831,12.2381994 L22.888007,9.37462889 C23.0083878,9.2315712 23.0338341,9.03390026 22.9540696,8.8661941 Z" id="Path"></path>
            <path d="M10.6403824,2 C10.1225418,2 9.70295324,2.43938202 9.70295324,2.981651 L9.70295324,8.93816013 C9.27909285,9.24930622 9,9.76224993 9,10.344779 C9,11.2921344 9.73617858,12.063041 10.6408571,12.063041 C10.8886232,12.063041 11.1221499,12.0009112 11.3328934,11.8970302 L14.5937231,13.8677878 C14.7418132,13.9577517 14.9022441,14 15.0617258,14 C15.3854355,14 15.7006016,13.8240484 15.8743226,13.508926 C16.1330056,13.0402187 15.9796944,12.4392992 15.5306777,12.1684132 L12.2665255,10.1946734 C12.2228579,9.67576523 11.9651242,9.22246614 11.5787609,8.93915421 L11.5787609,2.981651 C11.5778117,2.43987905 11.1577484,2 10.6403824,2 Z M10.6403824,11.080396 C10.2525953,11.080396 9.93742921,10.7498654 9.93742921,10.344779 C9.93742921,9.93919563 10.2530699,9.60866504 10.6403824,9.60866504 C11.027695,9.60866504 11.3433357,9.93919563 11.3433357,10.344779 C11.3433357,10.7498654 11.027695,11.080396 10.6403824,11.080396 Z" id="Shape"></path>
        </g>
    </g>
</svg>