<?xml version="1.0" encoding="UTF-8"?>
<svg width="23px" height="23px" viewBox="0 0 23 23" version="1.1" xmlns="http://www.w3.org/2000/svg" xmlns:xlink="http://www.w3.org/1999/xlink">
    <!-- Generator: Sketch 62 (91390) - https://sketch.com -->
    <title>suitcase</title>
    <desc>Created with Sketch.</desc>
    <g id="UI-" stroke="none" stroke-width="1" fill="none" fill-rule="evenodd">
        <g id="piste2v2-pending-order" transform="translate(-47.000000, -347.000000)" fill="#2F72E8">
            <g id="suitcase" transform="translate(47.000000, 347.000000)">
                <path d="M19.3748791,3.76508142 L16.766668,3.76508142 C16.744268,3.41416304 16.4533816,3.13626865 16.0968632,3.13626865 L16.0622328,3.13626865 L16.0622328,1.69518712 C16.062188,0.760479964 15.2939129,0 14.3495737,0 L8.5880252,0 C7.64368604,0 6.87536608,0.760479964 6.87536608,1.69518712 L6.87536608,3.13626865 L6.84073568,3.13626865 C6.4842173,3.13626865 6.19328611,3.41416304 6.17093091,3.76508142 L3.56271983,3.76508142 C1.61741432,3.76508142 0.0348095984,5.34768615 0.0348095984,7.29299166 L0.0348095984,20.0558839 C0.0348095984,21.644895 1.32755834,22.9375989 2.91652466,22.9375989 L20.0211191,22.9375989 C21.6100854,22.9375989 22.9027893,21.644895 22.9027893,20.0558839 L22.9027893,7.29299166 C22.9027893,5.34768615 21.3201398,3.76508142 19.3748791,3.76508142 Z M11.887321,5.10908136 C12.4870138,5.22878696 13.008665,5.56863974 13.3600762,6.07151972 C13.7213882,6.58864609 13.8597754,7.21557726 13.7496122,7.83672923 C13.7061562,8.08178522 13.6259194,8.31402841 13.5114554,8.5300988 L11.6231803,8.74679639 C11.4301371,8.76897239 11.2562235,8.87353558 11.1461051,9.03360598 L8.38006361,13.0553914 C8.27908441,13.202201 8.24055641,13.3831482 8.27294681,13.5584506 C8.30533721,13.733753 8.40609241,13.8888953 8.5529468,13.9899193 L11.3115515,15.8871993 C11.4278971,15.9672121 11.5605051,16.0055609 11.6917243,16.0055609 C11.9055098,16.0055609 12.1157114,15.9038201 12.2460346,15.7143161 L15.0120761,11.6925755 C15.1221497,11.5325051 15.1575865,11.3326075 15.1092025,11.1444923 L14.6308281,9.28350037 C14.8480185,8.90937558 14.9964857,8.5025468 15.0729593,8.07148122 C15.2457977,7.09681247 15.0287417,6.11318371 14.4617081,5.30176615 C14.4154297,5.23550695 14.3665529,5.17175656 14.3166009,5.10908136 L16.7431928,5.10908136 L16.7431928,21.593599 L6.19440611,21.593599 L6.19440611,5.10908136 L11.887321,5.10908136 Z M13.7314682,11.1828411 L11.5194683,14.3989881 L9.86827474,13.2633082 L12.0802298,10.0471611 L13.4005754,9.89564754 L13.7314682,11.1828411 Z M8.21941082,1.69518712 C8.21941082,1.49497593 8.37786841,1.34399994 8.58807,1.34399994 L14.3495737,1.34399994 C14.5597305,1.34399994 14.7182329,1.49497593 14.7182329,1.69518712 L14.7182329,3.13626865 L14.6835577,3.13626865 C14.3270393,3.13626865 14.0361081,3.41416304 14.0137529,3.76508142 L8.92389078,3.76508142 C8.90153558,3.41416304 8.6106044,3.13626865 8.25408601,3.13626865 L8.21941082,3.13626865 L8.21941082,1.69518712 Z M1.37880954,20.0558839 L1.37880954,7.29299166 C1.37880954,6.08876771 2.35849589,5.10908136 3.56271983,5.10908136 L4.85036137,5.10908136 L4.85036137,21.593599 L2.91652466,21.593599 C2.0686399,21.593599 1.37880954,20.9038134 1.37880954,20.0558839 Z M21.5587894,20.0558839 C21.5587894,20.9038134 20.8690038,21.593599 20.0211191,21.593599 L18.0872376,21.593599 L18.0872376,5.10908136 L19.3748791,5.10908136 C20.579103,5.10908136 21.5587894,6.08876771 21.5587894,7.29299166 L21.5587894,20.0558839 L21.5587894,20.0558839 Z" id="Shape"></path>
            </g>
        </g>
    </g>
</svg>