<?xml version="1.0" encoding="UTF-8"?>
<svg width="25px" height="25px" viewBox="0 0 25 25" version="1.1" xmlns="http://www.w3.org/2000/svg" xmlns:xlink="http://www.w3.org/1999/xlink">
    <!-- Generator: Sketch 62 (91390) - https://sketch.com -->
    <title>Target</title>
    <desc>Created with Sketch.</desc>
    <g id="UI-" stroke="none" stroke-width="1" fill="none" fill-rule="evenodd">
        <g id="piste2v2-pending-order" transform="translate(-45.000000, -230.000000)" fill="#2F72E8">
            <g id="Target" transform="translate(45.000000, 230.000000)">
                <path d="M12.443199,7.50399942 C9.81432384,7.50399942 7.68319941,9.63512385 7.68319941,12.2639991 C7.68319941,14.8928743 9.81432384,17.0239987 12.443199,17.0239987 C15.0720743,17.0239987 17.2031987,14.8928743 17.2031987,12.2639991 C17.2001128,9.63640311 15.070795,7.50708527 12.443199,7.50399942 L12.443199,7.50399942 Z M12.443199,15.3439988 C10.7421621,15.3439988 9.36319928,13.965036 9.36319928,12.2639991 C9.36319928,10.5629622 10.7421621,9.1839993 12.443199,9.1839993 C14.1442359,9.1839993 15.5231988,10.5629622 15.5231988,12.2639991 C15.5231988,13.965036 14.1442359,15.3439988 12.443199,15.3439988 Z" id="Shape"></path>
                <path d="M23.3631982,11.4239991 L21.6383983,11.4239991 C21.2263523,6.99141959 17.7157785,3.48084578 13.283199,3.06879976 L13.283199,1.3439999 C13.283199,0.880080743 12.9071182,0.503999961 12.443199,0.503999961 C11.9792799,0.503999961 11.6031991,0.880080743 11.6031991,1.3439999 L11.6031991,3.06879976 C7.17061958,3.48084578 3.66004576,6.99141959 3.24799975,11.4239991 L0.963199926,11.4239991 C0.499280772,11.4239991 0.123199991,11.8000799 0.123199991,12.2639991 C0.123199991,12.7279182 0.499280772,13.103999 0.963199926,13.103999 L3.24799975,13.103999 C3.65793645,17.5406693 7.17212883,21.0548617 11.6087991,21.4647984 C11.6087991,21.4647984 11.6087991,21.4647984 11.6087991,21.5095984 L11.6087991,23.7495982 C11.6087991,24.2135173 11.9848799,24.5895981 12.448799,24.5895981 C12.9127182,24.5895981 13.288799,24.2135173 13.288799,23.7495982 L13.288799,21.5095984 C13.288799,21.5095984 13.288799,21.5095984 13.288799,21.4647984 C17.7211027,21.0497822 21.229324,17.5368551 21.6383983,13.103999 L23.3631982,13.103999 C23.8271174,13.103999 24.2031981,12.7279182 24.2031981,12.2639991 C24.2031981,11.8000799 23.8271174,11.4239991 23.3631982,11.4239991 Z M12.443199,19.8239985 C8.26792666,19.8239985 4.88319963,16.4392714 4.88319963,12.2639991 C4.88319963,8.08872667 8.26792666,4.70399964 12.443199,4.70399964 C16.6184714,4.70399964 20.0031985,8.08872667 20.0031985,12.2639991 C20.0031985,16.4392714 16.6184714,19.8239985 12.443199,19.8239985 Z" id="Shape"></path>
            </g>
        </g>
    </g>
</svg>