<?xml version="1.0" encoding="UTF-8"?>
<svg width="26px" height="25px" viewBox="0 0 26 25" version="1.1" xmlns="http://www.w3.org/2000/svg" xmlns:xlink="http://www.w3.org/1999/xlink">
    <!-- Generator: Sketch 62 (91390) - https://sketch.com -->
    <title>User-2</title>
    <desc>Created with Sketch.</desc>
    <g id="UI-" stroke="none" stroke-width="1" fill="none" fill-rule="evenodd">
        <g id="piste2v2-pending-order" transform="translate(-45.000000, -288.000000)" fill="#2F72E8">
            <g id="User-2" transform="translate(45.000000, 288.000000)">
                <path d="M12.723199,0.363999972 C5.91905143,0.363999972 0.403199969,5.87985143 0.403199969,12.683999 C0.403199969,19.4881466 5.91905143,25.0039981 12.723199,25.0039981 C19.5273466,25.0039981 25.0431981,19.4881466 25.0431981,12.683999 C25.0431981,5.87985143 19.5273466,0.363999972 12.723199,0.363999972 Z M2.08319984,12.683999 C2.08285964,8.02399472 5.11493802,3.90600243 9.56491587,2.52276802 C14.0148937,1.13953361 18.8471812,2.81296059 21.4886849,6.65198365 C24.1301887,10.4910067 23.9661834,15.6022162 21.0839984,19.2639985 C19.800325,17.3520314 17.9378133,15.9016667 15.7695988,15.1255988 C16.7066323,14.1225847 17.2202113,12.7965076 17.2031987,11.4239991 C17.2031987,8.62399934 15.1927988,6.38399951 12.723199,6.38399951 C10.2535992,6.38399951 8.24319937,8.62399934 8.24319937,11.4239991 C8.2292777,12.8454895 8.78603667,14.21318 9.78879925,15.2207988 C7.6051976,16.0046405 5.76340101,17.525608 4.58079965,19.5215985 C2.96642974,17.6091482 2.08158186,15.1867283 2.08319984,12.683999 L2.08319984,12.683999 Z M13.003199,14.6439989 C12.6964104,14.6452591 12.3898833,14.6620807 12.0847991,14.6943989 C10.7219503,14.2001737 9.84376213,12.8715159 9.92319924,11.4239991 C9.92319924,9.57039927 11.1775991,8.06399938 12.723199,8.06399938 C14.2687989,8.06399938 15.5231988,9.57039927 15.5231988,11.4239991 C15.5922024,12.8307874 14.7662473,14.1280755 13.462399,14.6607989 C13.311199,14.6551989 13.159999,14.6439989 13.003199,14.6439989 Z M5.82399955,20.8039984 C7.04114755,18.4277712 9.33978731,16.7936473 11.9839991,16.4247987 C12.5291499,16.5312594 13.0909326,16.5178836 13.630399,16.3855987 C16.2436597,16.7384801 18.550962,18.2698024 19.8911985,20.5407984 C15.9419851,24.1859649 9.88984877,24.2990664 5.80719955,20.8039984 L5.82399955,20.8039984 Z" id="Shape"></path>
            </g>
        </g>
    </g>
</svg>