<?xml version="1.0" encoding="UTF-8"?>
<svg width="19px" height="18px" viewBox="0 0 19 18" version="1.1" xmlns="http://www.w3.org/2000/svg" xmlns:xlink="http://www.w3.org/1999/xlink">
    <!-- Generator: Sketch 62 (91390) - https://sketch.com -->
    <title>Atoms/icons/add</title>
    <desc>Created with Sketch.</desc>
    <g id="Symbols" stroke="none" stroke-width="1" fill="none" fill-rule="evenodd">
        <g id="Atoms/buttons/default+picto" transform="translate(-22.000000, -9.000000)" fill="#FFFFFF">
            <g id="Atoms/buttons/default-Copy-2">
                <g id="Group" transform="translate(22.000000, 9.000000)">
                    <g id="Atoms/icons/add">
                        <g id="Add-2">
                            <path d="M9.20159951,0.161999991 C4.28074265,0.161999991 0.291599985,4.15114266 0.291599985,9.07199952 C0.291599985,13.9928564 4.28074265,17.981999 9.20159951,17.981999 C14.1224564,17.981999 18.111599,13.9928564 18.111599,9.07199952 C18.111599,4.15114266 14.1224564,0.161999991 9.20159951,0.161999991 L9.20159951,0.161999991 Z M9.20159951,16.7669991 C4.95176859,16.7669991 1.50659992,13.3218304 1.50659992,9.07199952 C1.50659992,4.82216859 4.95176859,1.37699993 9.20159951,1.37699993 C13.4514304,1.37699993 16.8965991,4.82216859 16.8965991,9.07199952 C16.8965991,11.1128403 16.0858783,13.0700936 14.6427859,14.5131859 C13.1996935,15.9562783 11.2424403,16.7669991 9.20159951,16.7669991 Z" id="Shape"></path>
                            <path d="M12.4415993,8.66699954 L10.0115995,8.66699954 L10.0115995,6.23699967 C10.0115995,5.9014867 9.73961247,5.6294997 9.4040995,5.6294997 C9.06858653,5.6294997 8.79659953,5.9014867 8.79659953,6.23699967 L8.79659953,8.66699954 L6.36659966,8.66699954 C6.03108669,8.66699954 5.75909969,8.93898654 5.75909969,9.27449951 C5.75909969,9.61001248 6.03108669,9.88199948 6.36659966,9.88199948 L8.79659953,9.88199948 L8.79659953,12.3119993 C8.79659953,12.6475123 9.06858653,12.9194993 9.4040995,12.9194993 C9.73961247,12.9194993 10.0115995,12.6475123 10.0115995,12.3119993 L10.0115995,9.88199948 L12.4415993,9.88199948 C12.7771123,9.88199948 13.0490993,9.61001248 13.0490993,9.27449951 C13.0490993,8.93898654 12.7771123,8.66699954 12.4415993,8.66699954 L12.4415993,8.66699954 Z" id="Shape"></path>
                        </g>
                    </g>
                </g>
            </g>
        </g>
    </g>
</svg>