<?xml version="1.0" encoding="UTF-8"?>
<svg width="24px" height="27px" viewBox="0 0 24 27" version="1.1" xmlns="http://www.w3.org/2000/svg" xmlns:xlink="http://www.w3.org/1999/xlink">
    <!-- Generator: Sketch 62 (91390) - https://sketch.com -->
    <title>Atomes/icon/calendar</title>
    <desc>Created with Sketch.</desc>
    <defs>
        <polygon id="path-1" points="0 0.24499999 20.6778031 0.24499999 20.6778031 23.029901 0 23.029901"></polygon>
    </defs>
    <g id="Atomes/icon/calendar" stroke="none" stroke-width="1" fill="none" fill-rule="evenodd">
        <rect id="Rectangle" fill="#2F72E8" transform="translate(11.500000, 26.000000) scale(1, -1) translate(-11.500000, -26.000000) " x="0" y="25" width="23" height="2" rx="1"></rect>
        <g id="Group-22" transform="translate(3.000000, 0.000000)">
            <g id="Group-3" transform="translate(0.000000, 0.245000)">
                <mask id="mask-2" fill="white">
                    <use xlink:href="#path-1"></use>
                </mask>
                <g id="Clip-2"></g>
                <path d="M19.2078032,8.08490167 C19.2078032,8.23190166 19.1102932,8.32990166 18.9628032,8.32990166 L1.71480393,8.32990166 C1.56780394,8.32990166 1.46980394,8.23190166 1.46980394,8.08490167 L1.46980394,4.06690183 C1.46980394,3.91990184 1.56780394,3.82190184 1.71480393,3.82190184 L4.65480381,3.82190184 C4.8022938,3.82190184 4.8998038,3.91990184 4.8998038,4.06690183 L4.8998038,5.19390179 C4.8998038,5.58590177 5.24280378,5.92890175 5.63480377,5.92890175 C6.02729375,5.92890175 6.36980374,5.58590177 6.36980374,5.19390179 L6.36980374,4.06690183 C6.36980374,3.91990184 6.46780373,3.82190184 6.61480373,3.82190184 L14.0628034,3.82190184 C14.2102934,3.82190184 14.3078034,3.91990184 14.3078034,4.06690183 L14.3078034,5.19390179 C14.3078034,5.58590177 14.6508034,5.92890175 15.0428034,5.92890175 C15.4352934,5.92890175 15.7778033,5.58590177 15.7778033,5.19390179 L15.7778033,4.06690183 C15.7778033,3.91990184 15.8758033,3.82190184 16.0228033,3.82190184 L18.9628032,3.82190184 C19.1102932,3.82190184 19.2078032,3.91990184 19.2078032,4.06690183 L19.2078032,8.08490167 Z M19.2078032,21.3149011 C19.2078032,21.4619011 19.1102932,21.5599011 18.9628032,21.5599011 L1.71480393,21.5599011 C1.56780394,21.5599011 1.46980394,21.4619011 1.46980394,21.3149011 L1.46980394,10.0449016 C1.46980394,9.89790159 1.56780394,9.79990159 1.71480393,9.79990159 L18.9628032,9.79990159 C19.1102932,9.79990159 19.2078032,9.89790159 19.2078032,10.0449016 L19.2078032,21.3149011 Z M18.9628032,2.3519019 L16.0228033,2.3519019 C15.8758033,2.3519019 15.7778033,2.25390191 15.7778033,2.10690191 L15.7778033,0.979901959 C15.7778033,0.587901976 15.4352934,0.24490199 15.0428034,0.24490199 C14.6508034,0.24490199 14.3078034,0.587901976 14.3078034,0.979901959 L14.3078034,2.10690191 C14.3078034,2.25390191 14.2102934,2.3519019 14.0628034,2.3519019 L6.61480373,2.3519019 C6.46780373,2.3519019 6.36980374,2.25390191 6.36980374,2.10690191 L6.36980374,0.979901959 C6.36980374,0.587901976 6.02729375,0.24490199 5.63480377,0.24490199 C5.24280378,0.24490199 4.8998038,0.587901976 4.8998038,0.979901959 L4.8998038,2.10690191 C4.8998038,2.25390191 4.8022938,2.3519019 4.65480381,2.3519019 L1.71480393,2.3519019 C0.783803968,2.3519019 -0.000195999992,3.13590187 -0.000195999992,4.06690183 L-0.000195999992,21.3149011 C-0.000195999992,22.2459011 0.783803968,23.029901 1.71480393,23.029901 L18.9628032,23.029901 C19.8938032,23.029901 20.6778031,22.2459011 20.6778031,21.3149011 L20.6778031,4.06690183 C20.6778031,3.08690187 19.8938032,2.3519019 18.9628032,2.3519019 L18.9628032,2.3519019 Z" id="Fill-1" fill="#44D774" mask="url(#mask-2)"></path>
            </g>
            <path d="M5.24304878,12.0539505 L3.62604885,12.0539505 C3.23404887,12.0539505 2.89104888,12.3969505 2.89104888,12.7889505 C2.89104888,13.1809505 3.23404887,13.5239504 3.62604885,13.5239504 L5.24304878,13.5239504 C5.63504877,13.5239504 5.97804875,13.1809505 5.97804875,12.7889505 C5.97804875,12.3969505 5.68404876,12.0539505 5.24304878,12.0539505" id="Fill-4" fill="#44D774"></path>
            <path d="M11.1228035,12.0539505 L9.50580361,12.0539505 C9.11380362,12.0539505 8.77080364,12.3969505 8.77080364,12.7889505 C8.77080364,13.1809505 9.11380362,13.5239504 9.50580361,13.5239504 L11.1228035,13.5239504 C11.5152935,13.5239504 11.8578035,13.1809505 11.8578035,12.7889505 C11.8578035,12.3969505 11.5638035,12.0539505 11.1228035,12.0539505" id="Fill-6" fill="#44D774"></path>
            <path d="M17.0028033,12.0539505 L15.3858034,12.0539505 C14.9938034,12.0539505 14.6508034,12.3969505 14.6508034,12.7889505 C14.6508034,13.1809505 14.9938034,13.5239504 15.3858034,13.5239504 L17.0028033,13.5239504 C17.3952933,13.5239504 17.7378033,13.1809505 17.7378033,12.7889505 C17.7378033,12.3969505 17.4438033,12.0539505 17.0028033,12.0539505" id="Fill-8" fill="#44D774"></path>
            <path d="M5.24304878,15.2879994 L3.62604885,15.2879994 C3.23404887,15.2879994 2.89104888,15.6309994 2.89104888,16.0229993 C2.89104888,16.4149993 3.23404887,16.7579993 3.62604885,16.7579993 L5.24304878,16.7579993 C5.63504877,16.7579993 5.97804875,16.4149993 5.97804875,16.0229993 C5.97804875,15.6309994 5.68404876,15.2879994 5.24304878,15.2879994" id="Fill-10" fill="#44D774"></path>
            <path d="M11.1228035,15.2879994 L9.50580361,15.2879994 C9.11380362,15.2879994 8.77080364,15.6309994 8.77080364,16.0229993 C8.77080364,16.4149993 9.11380362,16.7579993 9.50580361,16.7579993 L11.1228035,16.7579993 C11.5152935,16.7579993 11.8578035,16.4149993 11.8578035,16.0229993 C11.8578035,15.6309994 11.5638035,15.2879994 11.1228035,15.2879994" id="Fill-12" fill="#44D774"></path>
            <path d="M17.0028033,15.2879994 L15.3858034,15.2879994 C14.9938034,15.2879994 14.6508034,15.6309994 14.6508034,16.0229993 C14.6508034,16.4149993 14.9938034,16.7579993 15.3858034,16.7579993 L17.0028033,16.7579993 C17.3952933,16.7579993 17.7378033,16.4149993 17.7378033,16.0229993 C17.7378033,15.6309994 17.4438033,15.2879994 17.0028033,15.2879994" id="Fill-14" fill="#44D774"></path>
            <path d="M5.24304878,18.5710972 L3.62604885,18.5710972 C3.23404887,18.5710972 2.89104888,18.9140972 2.89104888,19.3060972 C2.89104888,19.6980972 3.23404887,20.0410972 3.62604885,20.0410972 L5.24304878,20.0410972 C5.63504877,20.0410972 5.97804875,19.6980972 5.97804875,19.3060972 C5.97804875,18.9140972 5.68404876,18.5710972 5.24304878,18.5710972" id="Fill-16" fill="#44D774"></path>
            <path d="M11.1228035,18.5710972 L9.50580361,18.5710972 C9.11380362,18.5710972 8.77080364,18.9140972 8.77080364,19.3060972 C8.77080364,19.6980972 9.11380362,20.0410972 9.50580361,20.0410972 L11.1228035,20.0410972 C11.5152935,20.0410972 11.8578035,19.6980972 11.8578035,19.3060972 C11.8578035,18.9140972 11.5638035,18.5710972 11.1228035,18.5710972" id="Fill-18" fill="#44D774"></path>
            <path d="M17.0028033,18.5710972 L15.3858034,18.5710972 C14.9938034,18.5710972 14.6508034,18.9140972 14.6508034,19.3060972 C14.6508034,19.6980972 14.9938034,20.0410972 15.3858034,20.0410972 L17.0028033,20.0410972 C17.3952933,20.0410972 17.7378033,19.6980972 17.7378033,19.3060972 C17.7378033,18.9140972 17.4438033,18.5710972 17.0028033,18.5710972" id="Fill-20" fill="#44D774"></path>
        </g>
    </g>
</svg>