<?xml version="1.0" encoding="UTF-8"?>
<svg width="27px" height="27px" viewBox="0 0 27 27" version="1.1" xmlns="http://www.w3.org/2000/svg" xmlns:xlink="http://www.w3.org/1999/xlink">
    <!-- Generator: Sketch 62 (91390) - https://sketch.com -->
    <title>Atoms/icons/clear</title>
    <desc>Created with Sketch.</desc>
    <g id="Atoms/icons/clear" stroke="none" stroke-width="1" fill="none" fill-rule="evenodd">
        <g id="Close-2" fill="#2F72E8">
            <path d="M13.6319992,0.239999986 C6.34184092,0.239999986 0.431999974,6.14984094 0.431999974,13.4399992 C0.431999974,20.7301575 6.34184092,26.6399984 13.6319992,26.6399984 C20.9221575,26.6399984 26.8319984,20.7301575 26.8319984,13.4399992 C26.8319984,6.14984094 20.9221575,0.239999986 13.6319992,0.239999986 L13.6319992,0.239999986 Z M13.6319992,24.8399985 C7.33595341,24.8399985 2.23199987,19.736045 2.23199987,13.4399992 C2.23199987,7.14395343 7.33595341,2.03999988 13.6319992,2.03999988 C19.928045,2.03999988 25.0319985,7.14395343 25.0319985,13.4399992 C25.0319985,16.463467 23.8309306,19.3631014 21.693016,21.501016 C19.5551014,23.6389306 16.655467,24.8399985 13.6319992,24.8399985 Z" id="Shape"></path>
            <path d="M18.4559989,8.59199949 C18.1046179,8.24105546 17.53538,8.24105546 17.183999,8.59199949 L13.7699992,12.1439993 L10.0559994,8.54399949 C9.82666488,8.30958534 9.48797869,8.21846668 9.17198369,8.30616773 C8.8559887,8.39386879 8.61270832,8.6465061 8.53698978,8.96558449 C8.46127124,9.28466287 8.56510112,9.61967079 8.80799948,9.83999941 L12.4979993,13.3919992 L8.80799948,16.943999 C8.56510112,17.1643276 8.46127124,17.4993355 8.53698978,17.8184139 C8.61270832,18.1374923 8.8559887,18.3901296 9.17198369,18.4778307 C9.48797869,18.5655317 9.82666488,18.4744131 10.0559994,18.2399989 L13.7699992,14.6399991 L17.183999,18.1919989 C17.4043276,18.4348973 17.7393355,18.5387271 18.0584139,18.4630086 C18.3774923,18.3872901 18.6301296,18.1440097 18.7178307,17.8280147 C18.8055317,17.5120197 18.714413,17.1733335 18.4799989,16.943999 L15.0419991,13.3439992 L18.4799989,9.74399942 C18.7510759,9.40453264 18.740979,8.91988174 18.4559989,8.59199949 L18.4559989,8.59199949 Z" id="Shape"></path>
        </g>
    </g>
</svg>