<?xml version="1.0" encoding="UTF-8"?>
<svg width="14px" height="17px" viewBox="0 0 14 17" version="1.1" xmlns="http://www.w3.org/2000/svg" xmlns:xlink="http://www.w3.org/1999/xlink">
    <!-- Generator: Sketch 62 (91390) - https://sketch.com -->
    <title>Flag</title>
    <desc>Created with Sketch.</desc>
    <g id="Symbols" stroke="none" stroke-width="1" fill="none" fill-rule="evenodd">
        <g id="Atoms/states" transform="translate(-37.000000, 0.000000)" fill="#06026C">
            <g id="Flag" transform="translate(37.000000, 0.000000)">
                <path d="M12.0480002,5.79600009 L13.7720002,2.75200004 C13.9827063,2.38048528 13.980064,1.92497582 13.7650621,1.55593048 C13.5500602,1.18688515 13.155107,0.959931821 12.7280002,0.960000014 L1.48800002,0.960000014 C1.48800002,0.628629159 1.21937087,0.360000005 0.888000013,0.360000005 C0.556629158,0.360000005 0.288000004,0.628629159 0.288000004,0.960000014 L0.288000004,16.1600002 C0.288000004,16.4913711 0.556629158,16.7600002 0.888000013,16.7600002 C1.21937087,16.7600002 1.48800002,16.4913711 1.48800002,16.1600002 L1.48800002,10.9600002 L12.6880002,10.9600002 C13.1034708,10.9594324 13.4890873,10.7439959 13.7073797,10.3904926 C13.9256721,10.0369892 13.9455777,9.59572208 13.7600002,9.22400014 L12.0480002,5.79600009 Z M1.48800002,9.76000015 L1.48800002,2.16000003 L12.6880002,2.16000003 L10.6600002,5.76000009 L12.6600002,9.76000015 L1.48800002,9.76000015 Z" id="Shape"></path>
            </g>
        </g>
    </g>
</svg>