<?xml version="1.0" encoding="UTF-8"?>
<svg width="27px" height="27px" viewBox="0 0 27 27" version="1.1" xmlns="http://www.w3.org/2000/svg" xmlns:xlink="http://www.w3.org/1999/xlink">
    <!-- Generator: Sketch 62 (91390) - https://sketch.com -->
    <title>facebook</title>
    <desc>Created with Sketch.</desc>
    <g id="Symbols" stroke="none" stroke-width="1" fill="none" fill-rule="evenodd">
        <g id="Atoms/buttons/facebook" transform="translate(-111.000000, -9.000000)" fill="#FFFFFF" fill-rule="nonzero">
            <g id="Group-2" transform="translate(111.000000, 9.000000)">
                <g id="facebook">
                    <path d="M23.3616033,0 L3.63833066,0 C1.62897611,0 0,1.62889811 0,3.63830396 L0,23.3615639 C0,25.3709698 1.62891006,27 3.63833066,27 L13.3657546,27 L13.382333,17.3515759 L10.8756926,17.3515759 C10.549937,17.3515759 10.2855413,17.0881728 10.2842864,16.7624196 L10.2722654,13.6523748 C10.2710104,13.3248383 10.5361987,13.0586612 10.8637377,13.0586612 L13.3658207,13.0586612 L13.3658207,10.0535681 C13.3658207,6.5661859 15.4957154,4.66727986 18.6067077,4.66727986 L21.1595166,4.66727986 C21.4861309,4.66727986 21.7509889,4.93206992 21.7509889,5.25874781 L21.7509889,7.88115356 C21.7509889,8.20769935 21.486329,8.47242336 21.1598469,8.47262151 L19.5932214,8.47334804 C17.9013662,8.47334804 17.5737613,9.27729532 17.5737613,10.4571269 L17.5737613,13.0587273 L21.2913512,13.0587273 C21.6455741,13.0587273 21.9204056,13.3680343 21.8786624,13.7198108 L21.5100407,16.8298556 C21.4747704,17.1274719 21.2223956,17.351708 20.9227296,17.351708 L17.5903397,17.351708 L17.5737613,27 L23.3617354,27 C25.3710899,27 27,25.3711019 27,23.3617621 L27,3.63830396 C27,1.62889811 25.3710239,0 23.3616033,0 Z" id="Path"></path>
                </g>
            </g>
        </g>
    </g>
</svg>