<?xml version="1.0" encoding="UTF-8"?>
<svg width="160px" height="14px" viewBox="0 0 160 14" version="1.1" xmlns="http://www.w3.org/2000/svg" xmlns:xlink="http://www.w3.org/1999/xlink">
    <!-- Generator: Sketch 62 (91390) - https://sketch.com -->
    <title>logo_air_france</title>
    <desc>Created with Sketch.</desc>
    <g id="UI-" stroke="none" stroke-width="1" fill="none" fill-rule="evenodd">
        <g id="piste2v2-summary-v2" transform="translate(-822.000000, -105.000000)" fill="#FFFFFF" fill-rule="nonzero">
            <g id="logo_air_france" transform="translate(822.000000, 105.000000)">
                <path d="M151.360002,0.116000002 L144.200002,10.4760002 C143.256002,11.8400002 141.720002,13.1560002 139.880002,13.3000002 L139.880002,13.616 L147.840002,13.616 C149.960002,13.616 151.504002,12.2360002 152.520002,10.7160002 L159.880002,0.116000002 L151.360002,0.116000002 Z" id="Path"></path>
                <path d="M151.360002,0.116000002 L144.200002,10.4760002 C143.256002,11.8440002 141.720002,13.1600002 139.880002,13.3000002 L139.880002,13.616 L147.840002,13.616 C149.960002,13.616 151.504002,12.2360002 152.520002,10.7160002 L159.880002,0.116000002 L151.360002,0.116000002 Z" id="Path"></path>
                <path d="M19.1200003,13.6400002 L19.1200003,1.26000002 L22.7360003,1.26000002 L22.7360003,13.6200002 L19.1200003,13.6200002 L19.1200003,13.6400002 L19.1200003,13.6400002 Z M102.480002,13.6400002 L93.8000014,6.32000009 L93.8000014,13.6400002 L90.7480014,13.6400002 L90.7480014,1.26000002 L93.3400014,1.26000002 L101.900002,8.50000013 L101.900002,1.26000002 L104.952002,1.26000002 L104.952002,13.6200002 L102.480002,13.6200002 L102.480002,13.6400002 L102.480002,13.6400002 Z M121.400002,5.24000008 C119.768002,4.43600007 117.928002,3.78400006 115.520002,3.78400006 C112.608002,3.78400006 110.440002,5.28800008 110.440002,7.38400011 C110.440002,9.53200014 112.648002,11.0480002 115.480002,11.0480002 C117.828002,11.0480002 119.680002,10.4480002 121.520002,9.38800014 L121.520002,12.4520002 C119.896002,13.2560002 117.740002,13.8560002 115.320002,13.8560002 C110.400002,13.8560002 106.480002,11.3280002 106.480002,7.41600011 C106.480002,3.53200005 110.452002,1.05600002 115.320002,1.05600002 C117.616002,1.05600002 119.680002,1.48800002 121.400002,2.19200003 L121.400002,5.24000008 L121.400002,5.24000008 Z M42.8400006,13.6400002 L42.8400006,1.26000002 L54.9200008,1.26000002 L54.9200008,3.91600006 L46.4800007,3.91600006 L46.4800007,6.9960001 L54.7200008,6.9960001 L54.7200008,9.65200014 L46.4800007,9.65200014 L46.4800007,13.6480002 L42.8400006,13.6480002 L42.8400006,13.6400002 L42.8400006,13.6400002 Z M123.560002,13.6400002 L123.560002,1.26000002 L136.080002,1.26000002 L136.080002,3.91600006 L127.160002,3.91600006 L127.160002,6.06000009 L135.920002,6.06000009 L135.920002,8.72000013 L127.160002,8.72000013 L127.160002,10.9920002 L136.040002,10.9920002 L136.040002,13.6480002 L123.560002,13.6480002 L123.560002,13.6400002 L123.560002,13.6400002 Z M67.480001,9.00000013 L72.4400011,13.6400002 L68.584001,13.6400002 C67.732001,13.6400002 67.168001,13.3720002 66.720001,12.9400002 L63.3240009,9.64800014 C63.2600009,9.58400014 63.1600009,9.54800014 63.0320009,9.54800014 L60.7200009,9.54800014 L60.7200009,13.6280002 L57.1040009,13.6280002 L57.1040009,1.26000002 L64.904001,1.26000002 C68.944001,1.26000002 70.6640011,3.08400005 70.6640011,5.10400008 C70.7600011,7.44000011 68.640001,8.56000013 67.480001,9.00000013 Z M64.600001,6.9200001 C66.028001,6.9200001 66.720001,6.19200009 66.720001,5.37600008 C66.720001,4.56000007 66.108001,3.88000006 64.600001,3.88000006 L60.7560009,3.88000006 L60.7560009,6.9200001 L64.600001,6.9200001 Z M36.4400005,9.00000013 L41.4000006,13.6400002 L37.5440006,13.6400002 C36.6880005,13.6400002 36.1280005,13.3720002 35.6800005,12.9400002 L32.2840005,9.64800014 C32.2240005,9.58400014 32.1200005,9.54800014 31.9920005,9.54800014 L29.6840004,9.54800014 L29.6840004,13.6280002 L26.0680004,13.6280002 L26.0680004,1.26000002 L33.8680005,1.26000002 C37.9080006,1.26000002 39.6280006,3.08400005 39.6280006,5.10400008 C39.7200006,7.44000011 37.6000006,8.56000013 36.4400005,9.00000013 L36.4400005,9.00000013 Z M33.5600005,6.9200001 C34.9880005,6.9200001 35.6800005,6.19200009 35.6800005,5.37600008 C35.6800005,4.56000007 35.0680005,3.88000006 33.5600005,3.88000006 L29.7160004,3.88000006 L29.7160004,6.9200001 L33.5600005,6.9200001 L33.5600005,6.9200001 Z M13.4400002,13.6400002 L11.8560002,10.9200002 L4.92000007,10.9200002 L3.48000005,13.6400002 L0.0600000009,13.6400002 L6.9600001,1.27200002 L10.1000002,1.27200002 L17.9000003,13.6320002 L13.4400002,13.6320002 L13.4400002,13.6400002 Z M6.32000009,8.32000012 L10.3200001,8.32000012 L8.22800012,4.54000007 L6.32000009,8.32000012 Z M85.6400013,13.6400002 L84.0960013,10.9200002 L77.3760012,10.9200002 L75.9840011,13.6400002 L72.6240011,13.6400002 L79.3440012,1.28000002 L82.3960012,1.28000002 L89.9960013,13.6400002 L85.6400013,13.6400002 L85.6400013,13.6400002 Z M78.6800012,8.32000012 L82.6120012,8.32000012 L80.5680012,4.54000007 L78.6800012,8.32000012 Z" id="Shape"></path>
            </g>
        </g>
    </g>
</svg>