<?xml version="1.0" encoding="UTF-8"?>
<svg width="113px" height="113px" viewBox="0 0 113 113" version="1.1" xmlns="http://www.w3.org/2000/svg" xmlns:xlink="http://www.w3.org/1999/xlink">
    <!-- Generator: Sketch 62 (91390) - https://sketch.com -->
    <title>Atoms/icons/google+</title>
    <desc>Created with Sketch.</desc>
    <g id="Atoms/icons/google+" stroke="none" stroke-width="1" fill="none" fill-rule="evenodd">
        <circle id="Oval" fill="#FFFFFF" fill-rule="nonzero" cx="56.098" cy="56.098" r="56.098"></circle>
        <path d="M19.531,56.609 C19.332,66.261 25.98,75.472 35.125,78.476 C43.739,81.37 54.33,79.205 60.062,71.828 C64.247,66.659 65.198,59.768 64.745,53.33 C57.368,53.264 49.991,53.286 42.625,53.297 C42.613,55.925 42.625,58.543 42.636,61.171 C47.053,61.293 51.471,61.237 55.888,61.326 C54.773,65.147 52.233,68.703 48.378,70.083 C40.935,73.363 31.438,69.078 29.096,61.27 C26.269,53.793 30.897,44.77 38.538,42.595 C43.276,40.928 48.157,42.805 52.211,45.268 C54.265,43.346 56.187,41.292 58.075,39.216 C53.469,35.362 47.55,32.999 41.465,33.518 C29.526,33.66 19.078,44.682 19.531,56.609 L19.531,56.609 Z M79.102,46.669 C79.08,48.867 79.057,51.076 79.046,53.273 C76.837,53.295 74.64,53.306 72.442,53.317 L72.442,59.899 C74.64,59.91 76.849,59.921 79.046,59.944 C79.068,62.142 79.068,64.339 79.09,66.548 C81.277,66.548 83.475,66.537 85.672,66.548 C85.684,64.339 85.694,62.142 85.717,59.933 L92.321,59.9 L92.321,53.318 C90.124,53.307 87.915,53.296 85.717,53.274 C85.705,51.076 85.684,48.867 85.672,46.67 L79.102,46.669 Z" id="Shape" fill="#DC4E41" fill-rule="nonzero"></path>
    </g>
</svg>