<?xml version="1.0" encoding="UTF-8"?>
<svg width="19px" height="18px" viewBox="0 0 19 18" version="1.1" xmlns="http://www.w3.org/2000/svg" xmlns:xlink="http://www.w3.org/1999/xlink">
    <!-- Generator: Sketch 62 (91390) - https://sketch.com -->
    <title>Search</title>
    <desc>Created with Sketch.</desc>
    <g id="UI-" stroke="none" stroke-width="1" fill="none" fill-rule="evenodd">
        <g id="piste2v2-Search-result" transform="translate(-354.000000, -258.000000)">
            <g id="Search" transform="translate(354.000000, 258.000000)">
                <path d="M16.3925987,16.2077988 L12.511799,12.3479991 C15.2310003,9.611981 15.3138585,5.2200123 12.6997901,2.38337759 C10.0857216,-0.453257109 5.70161865,-0.728748554 2.75301455,1.7583349 C-0.195589537,4.24541835 -0.66318355,8.61321075 1.69212418,11.6681045 C4.0474319,14.7229982 8.39050024,15.3817941 11.5457991,13.162799 L15.5021988,17.1191987 C15.750427,17.3505001 16.1372469,17.3436751 16.3771611,17.103761 C16.6170752,16.8638469 16.6239002,16.4770269 16.3925987,16.2287988 L16.3925987,16.2077988 Z M1.56239988,7.30799944 C1.56239988,4.06056536 4.19496535,1.42799989 7.44239943,1.42799989 C10.6898335,1.42799989 13.322399,4.06056536 13.322399,7.30799944 C13.322399,10.5554335 10.6898335,13.187999 7.44239943,13.187999 C4.19496535,13.187999 1.56239988,10.5554335 1.56239988,7.30799944 Z" id="Shape" fill="#2F72E8"></path>
                <rect id="Rectangle" fill="#44D774" transform="translate(17.009999, 15.329999) rotate(45.000000) translate(-17.009999, -15.329999) " x="15.1199988" y="14.6999989" width="3.77999971" height="1.2599999" rx="0.629999952"></rect>
            </g>
        </g>
    </g>
</svg>