<?xml version="1.0" encoding="UTF-8"?>
<svg width="14px" height="16px" viewBox="0 0 14 16" version="1.1" xmlns="http://www.w3.org/2000/svg" xmlns:xlink="http://www.w3.org/1999/xlink">
    <!-- Generator: Sketch 62 (91390) - https://sketch.com -->
    <title>Trash</title>
    <desc>Created with Sketch.</desc>
    <g id="Symbols" stroke="none" stroke-width="1" fill="none" fill-rule="evenodd" fill-opacity="0.4">
        <g id="Molecules/aside/modifier" transform="translate(-90.000000, -1.000000)" fill="#05378E">
            <g id="Group">
                <g id="Trash" transform="translate(90.000000, 1.000000)">
                    <path d="M13.2019998,2.58999996 L10.1989998,2.58999996 C9.68085102,1.21866734 8.36795736,0.311249267 6.90199988,0.311249267 C5.4360424,0.311249267 4.12314874,1.21866734 3.60499994,2.58999996 L0.60199999,2.58999996 C0.312050501,2.58999996 0.0769999987,2.82505046 0.0769999987,3.11499995 C0.0769999987,3.40494944 0.312050501,3.63999994 0.60199999,3.63999994 L0.951999984,3.63999994 L0.951999984,14.4899998 C0.951999984,15.0698987 1.42210099,15.5399997 2.00199997,15.5399997 L11.4519998,15.5399997 C12.0318988,15.5399997 12.5019998,15.0698987 12.5019998,14.4899998 L12.5019998,3.63999994 L13.2019998,3.63999994 C13.4919493,3.63999994 13.7269998,3.40494944 13.7269998,3.11499995 C13.7269998,2.82505046 13.4919493,2.58999996 13.2019998,2.58999996 L13.2019998,2.58999996 Z M6.90199988,1.36499998 C7.85749987,1.36499998 8.68699985,1.71499997 9.09649985,2.58999996 L4.70749992,2.58999996 C5.11699991,1.71149997 5.9464999,1.36499998 6.90199988,1.36499998 Z M11.4519998,14.4899998 L10.0519998,14.4899998 L10.0519998,8.53999985 C10.0519998,8.25005037 9.81694933,8.01499986 9.52699984,8.01499986 C9.23705035,8.01499986 9.00199985,8.25005037 9.00199985,8.53999985 L9.00199985,14.4899998 L7.25199988,14.4899998 L7.25199988,6.43999989 C7.25199988,6.1500504 7.01694937,5.9149999 6.72699989,5.9149999 C6.4370504,5.9149999 6.20199989,6.1500504 6.20199989,6.43999989 L6.20199989,14.4899998 L4.45199992,14.4899998 L4.45199992,8.53999985 C4.45199992,8.25005037 4.21694942,8.01499986 3.92699993,8.01499986 C3.63705044,8.01499986 3.40199994,8.25005037 3.40199994,8.53999985 L3.40199994,14.4899998 L2.00199997,14.4899998 L2.00199997,3.63999994 L11.4519998,3.63999994 L11.4519998,14.4899998 Z" id="Shape"></path>
                </g>
            </g>
        </g>
    </g>
</svg>