<?xml version="1.0" encoding="UTF-8"?>
<svg width="24px" height="14px" viewBox="0 0 24 14" version="1.1" xmlns="http://www.w3.org/2000/svg" xmlns:xlink="http://www.w3.org/1999/xlink">
    <!-- Generator: Sketch 62 (91390) - https://sketch.com -->
    <title>Atoms/icons/view</title>
    <desc>Created with Sketch.</desc>
    <g id="Atoms/icons/view" stroke="none" stroke-width="1" fill="none" fill-rule="evenodd">
        <g id="001-view" fill="#2F72E8" fill-rule="nonzero">
            <path d="M20.4248003,3.82440006 C15.6692002,-0.931200014 7.93200012,-0.931200014 3.17640005,3.82440006 L0,7.0004001 L3.25520005,10.2556002 C5.63280008,12.6332002 8.75600013,13.8224002 11.8796002,13.8224002 C15.0032002,13.8224002 18.1260003,12.6336002 20.5040003,10.2556002 L23.6804004,7.07920011 L20.4248003,3.82440006 Z M19.9380003,9.69000014 C15.4944002,14.1332002 8.26440012,14.1332002 3.82080006,9.69000014 L1.13120002,7.0004001 L3.74200006,4.38960007 C8.18560012,-0.0536000008 15.4156002,-0.0536000008 19.8592003,4.38960007 L22.5488003,7.07920011 L19.9380003,9.69000014 Z" id="Shape"></path>
            <path d="M11.4288002,3.82800006 C9.88480015,3.82800006 8.62880013,5.08400008 8.62880013,6.6280001 C8.62880013,6.8488001 8.80800013,7.0280001 9.02880013,7.0280001 C9.24960014,7.0280001 9.42880014,6.8488001 9.42880014,6.6280001 C9.42880014,5.52520008 10.3260002,4.62800007 11.4288002,4.62800007 C11.6496002,4.62800007 11.8288002,4.44880007 11.8288002,4.22800006 C11.8288002,4.00720006 11.6500002,3.82800006 11.4288002,3.82800006 Z" id="Path"></path>
            <path d="M11.8288002,1.82800003 C8.96160013,1.82800003 6.6288001,4.16080006 6.6288001,7.0280001 C6.6288001,9.89520015 8.96160013,12.2280002 11.8288002,12.2280002 C14.6960002,12.2280002 17.0288003,9.89520015 17.0288003,7.0280001 C17.0288003,4.16080006 14.6964002,1.82800003 11.8288002,1.82800003 Z M11.8288002,11.4280002 C9.40280014,11.4280002 7.42880011,9.45400014 7.42880011,7.0280001 C7.42880011,4.60200007 9.40280014,2.62800004 11.8288002,2.62800004 C14.2548002,2.62800004 16.2288002,4.60200007 16.2288002,7.0280001 C16.2288002,9.45400014 14.2552002,11.4280002 11.8288002,11.4280002 Z" id="Shape"></path>
        </g>
    </g>
</svg>