<?xml version="1.0" encoding="UTF-8"?>
<svg width="24px" height="14px" viewBox="0 0 24 14" version="1.1" xmlns="http://www.w3.org/2000/svg" xmlns:xlink="http://www.w3.org/1999/xlink">
    <!-- Generator: Sketch 62 (91390) - https://sketch.com -->
    <title>Atoms/icons/view Copy</title>
    <desc>Created with Sketch.</desc>
    <g id="Atoms/icons/view-Copy" stroke="none" stroke-width="1" fill="none" fill-rule="evenodd">
        <g id="002-hide" transform="translate(0.000000, -3.000000)" fill="#2F72E8" fill-rule="nonzero">
            <path d="M4.51399973,14.5559991 C4.58759973,14.6143991 4.67559972,14.6431991 4.76319972,14.6431991 C4.88079971,14.6431991 4.9971997,14.5915991 5.0763997,14.4923991 C5.21399969,14.3195991 5.18559969,14.0679992 5.0127997,13.9303992 C4.69239972,13.6751992 4.38199974,13.3979992 4.09079976,13.1063992 L1.13159993,10.1471994 L4.18319975,7.09559958 C7.11679958,4.16239975 11.3843993,3.16119981 15.3187991,4.48199973 C15.5279991,4.55119973 15.7547991,4.43919974 15.8255991,4.22999975 C15.8955991,4.02079976 15.7831991,3.79359977 15.5735991,3.72319978 C11.3487993,2.30519986 6.7671996,3.3803998 3.61759978,6.52959961 L0,10.1471994 L3.52479979,13.6719992 C3.83719977,13.9847992 4.17039975,14.2819991 4.51399973,14.5559991 Z" id="Path"></path>
            <path d="M20.0947988,6.52999961 C19.5555988,5.99079964 18.9643989,5.50439967 18.3371989,5.0835997 C18.1539989,4.9607997 17.9047989,5.0095997 17.7819989,5.19279969 C17.6587989,5.37599968 17.7079989,5.62479966 17.8911989,5.74799966 C18.4751989,6.13959963 19.0263989,6.59319961 19.5287988,7.09559958 L22.4879987,10.0547994 L19.4363988,13.1063992 C16.482399,16.060399 12.0311993,17.059199 8.09559952,15.6487991 C7.88759953,15.5739991 7.65839954,15.6823991 7.58399955,15.8903991 C7.50959955,16.098399 7.61759955,16.327199 7.82559953,16.401999 C9.09839946,16.857999 10.4215994,17.079199 11.7359993,17.079199 C14.7843991,17.079199 17.7855989,15.8883991 20.0019988,13.6719992 L23.6191986,10.0547994 L20.0947988,6.52999961 Z" id="Path"></path>
            <path d="M12.2155993,14.7095991 C11.3543993,14.7095991 10.5151994,14.4703991 9.78759942,14.0175992 C9.60079943,13.9015992 9.35399944,13.9583992 9.23679945,14.1459992 C9.11999946,14.3335991 9.17759945,14.5799991 9.36519944,14.6967991 C10.2191994,15.2287991 11.2051993,15.5095991 12.2155993,15.5095991 C15.1931991,15.5095991 17.615599,13.0871992 17.615599,10.1095994 C17.615599,9.03559946 17.300799,7.99799952 16.705599,7.10879958 C16.582399,6.92519959 16.333599,6.87599959 16.150799,6.99879958 C15.967199,7.12199958 15.9179991,7.37039956 16.040799,7.55359955 C16.547599,8.3107995 16.815599,9.19439945 16.815599,10.1095994 C16.815599,12.6463992 14.7519991,14.7095991 12.2155993,14.7095991 Z" id="Path"></path>
            <path d="M12.2155993,5.50959967 C13.0415992,5.50959967 13.8511992,5.73079966 14.5575991,6.14959963 C14.7471991,6.26199963 14.9927991,6.19959963 15.1055991,6.00919964 C15.2179991,5.81919965 15.1555991,5.57399967 14.9651991,5.46119967 C14.1355992,4.9695997 13.1847992,4.70959972 12.2151993,4.70959972 C9.23759945,4.70959972 6.81519959,7.13199957 6.81519959,10.1095994 C6.81519959,10.9431993 6.99999958,11.7427993 7.36479956,12.4859993 C7.43439956,12.6275992 7.57639955,12.7099992 7.72439954,12.7099992 C7.78319954,12.7099992 7.84359953,12.6967992 7.89999953,12.6691992 C8.09839952,12.5715993 8.18039951,12.3319993 8.08319952,12.1339993 C7.77279954,11.5011993 7.61519955,10.8203994 7.61519955,10.1099994 C7.61559955,7.57319955 9.67919942,5.50959967 12.2155993,5.50959967 Z" id="Path"></path>
            <path d="M21.8483987,0.226799986 C21.6919987,0.0703999958 21.4391987,0.0703999958 21.2827987,0.226799986 L2.68279984,18.8267989 C2.52639985,18.9831989 2.52639985,19.2359989 2.68279984,19.3923988 C2.76079984,19.4703988 2.86319983,19.5095988 2.96559982,19.5095988 C3.06799982,19.5095988 3.17039981,19.4703988 3.24839981,19.3923988 L21.8483987,0.792399953 C22.0047987,0.636399962 22.0047987,0.383199977 21.8483987,0.226799986 Z" id="Path"></path>
        </g>
    </g>
</svg>